<svg width="657" height="701" viewBox="0 0 657 701" fill="none" xmlns="http://www.w3.org/2000/svg">
<g style="mix-blend-mode:darken">
<path d="M635.02 615.78L328.02 620.93L21.0196 615.78C21.0196 615.78 -20.7304 669 13.4496 693.59C20.2799 698.408 28.4514 700.958 36.8096 700.88H619.34C627.695 700.957 635.862 698.407 642.69 693.59C676.87 669 635.02 615.78 635.02 615.78Z" fill="#CBCBCB"/>
</g>
<path d="M582.86 526.15H328.07H73.2796L29.3796 606.26H328.07H626.77L582.86 526.15Z" fill="#A4A4A4" stroke="black" stroke-width="5" stroke-miterlimit="10"/>
<g style="mix-blend-mode:overlay" opacity="0.47">
<path d="M73.2795 558.42H328.069H582.86L625.38 606.26H626.77L582.86 526.15H328.069H73.2795L29.7495 605.58L73.2795 558.42Z" fill="white"/>
</g>
<path d="M626.77 606.26H29.3796C10.1396 653.71 55.2496 674.57 55.2496 674.57H600.89C600.89 674.57 646.02 653.71 626.77 606.26Z" fill="#A4A4A4" stroke="black" stroke-width="5" stroke-miterlimit="10"/>
<g style="mix-blend-mode:multiply">
<path d="M626.77 606.26C646 653.71 592.93 665.47 592.93 665.47H47.2996C42.11 662.832 37.3248 659.465 33.0896 655.47C38.8505 663.502 46.4484 670.041 55.2496 674.54H600.89C600.89 674.54 646.02 653.71 626.77 606.26Z" fill="#A4A4A4"/>
</g>
<g style="mix-blend-mode:overlay" opacity="0.3">
<path d="M624.39 606.86H29.3896C12.7996 647.76 44.0196 668.9 52.9496 674C44.7496 665.46 37.0496 652.34 39.3696 634.15C39.9368 629.687 42.1127 625.584 45.4891 622.611C48.8655 619.638 53.2106 617.998 57.7096 618H596.02C600.514 617.995 604.857 619.627 608.234 622.593C611.612 625.558 613.793 629.653 614.37 634.11C616.69 652.3 608.99 665.42 600.78 673.96C609.76 668.9 641.02 647.76 624.39 606.86Z" fill="white"/>
</g>
<g style="mix-blend-mode:multiply" opacity="0.44">
<path d="M591.02 545.67H65.1796C65.1796 545.67 57.0596 547.85 57.0596 570.67C57.0596 593.49 64.2096 595.67 64.2096 595.67H591.93C591.93 595.67 599.08 593.48 599.08 570.67C599.08 547.86 591.02 545.67 591.02 545.67Z" fill="#A4A4A4"/>
</g>
<path d="M46.4095 608.68H31.2895C13.6795 652.81 56.1695 672.22 56.1695 672.22C56.1695 672.22 28.8095 652.81 46.4095 608.68Z" fill="white"/>
<path d="M33.6997 603.53L54.6997 565.37C54.6997 565.37 40.5597 600.19 47.0297 603.53H33.6997Z" fill="white"/>
<g style="mix-blend-mode:multiply">
<path d="M176.15 626.69V651.79H186.15V658.87H167.75V626.69H176.15Z" fill="#A4A4A4"/>
<path d="M202.52 626.69V644.19C202.52 645.13 202.52 646.09 202.63 647.07C202.684 647.991 202.9 648.895 203.27 649.74C203.633 650.537 204.22 651.211 204.96 651.68C205.945 652.237 207.07 652.497 208.2 652.43C209.323 652.497 210.441 652.237 211.42 651.68C212.154 651.206 212.74 650.533 213.11 649.74C213.49 648.898 213.714 647.993 213.77 647.07C213.84 646.07 213.88 645.13 213.88 644.19V626.69H222.2V645.34C222.2 650.347 221.053 654.014 218.76 656.34C216.466 658.667 212.946 659.82 208.2 659.8C203.453 659.8 199.923 658.647 197.61 656.34C195.296 654.034 194.146 650.367 194.16 645.34V626.69H202.52Z" fill="#A4A4A4"/>
<path d="M256.389 637.44C255.551 636.334 254.467 635.438 253.222 634.824C251.978 634.209 250.607 633.893 249.219 633.9C248.025 633.89 246.842 634.121 245.739 634.58C244.702 635.008 243.763 635.641 242.977 636.442C242.192 637.243 241.577 638.195 241.169 639.24C240.724 640.353 240.499 641.542 240.509 642.74C240.496 643.952 240.721 645.155 241.169 646.28C241.586 647.327 242.207 648.28 242.995 649.085C243.783 649.89 244.722 650.531 245.759 650.97C246.836 651.435 247.997 651.67 249.169 651.66C250.547 651.636 251.903 651.318 253.148 650.728C254.393 650.138 255.498 649.29 256.389 648.24V658.15L255.529 658.44C254.363 658.862 253.166 659.196 251.949 659.44C250.865 659.649 249.764 659.756 248.659 659.76C246.47 659.767 244.302 659.338 242.279 658.5C240.274 657.679 238.447 656.477 236.899 654.96C235.327 653.4 234.061 651.558 233.169 649.53C232.246 647.373 231.77 645.052 231.77 642.705C231.77 640.359 232.246 638.037 233.169 635.88C234.505 632.872 236.686 630.316 239.446 628.524C242.207 626.731 245.428 625.778 248.719 625.78C249.99 625.781 251.258 625.918 252.499 626.19C253.838 626.492 255.146 626.914 256.409 627.45L256.389 637.44Z" fill="#A4A4A4"/>
<path d="M275.68 640L285.88 626.73H296.21L283.45 641.97L297.4 658.91H286.56L275.68 644.91V658.91H267.31V626.69H275.68V640Z" fill="#A4A4A4"/>
<path d="M313.149 643.42L301.419 626.69H311.419L317.419 635.48L323.349 626.69H333.349L321.519 643.42V658.87H313.149V643.42Z" fill="#A4A4A4"/>
<path d="M359.29 626.69H371.67C373.798 626.677 375.903 627.127 377.84 628.01C379.708 628.867 381.403 630.06 382.84 631.53C384.285 633.011 385.439 634.752 386.24 636.66C387.045 638.593 387.46 640.666 387.46 642.76C387.46 644.854 387.045 646.927 386.24 648.86C385.468 650.768 384.342 652.513 382.92 654C381.49 655.486 379.794 656.69 377.92 657.55C375.97 658.437 373.851 658.887 371.71 658.87H359.29V626.69ZM367.66 651.79H369.58C370.905 651.813 372.223 651.578 373.46 651.1C374.543 650.686 375.524 650.045 376.34 649.22C377.133 648.415 377.746 647.45 378.14 646.39C378.558 645.233 378.765 644.01 378.75 642.78C378.761 641.554 378.544 640.337 378.11 639.19C377.714 638.111 377.09 637.13 376.28 636.314C375.471 635.498 374.495 634.865 373.42 634.46C372.196 633.985 370.892 633.751 369.58 633.77H367.66V651.79Z" fill="#A4A4A4"/>
<path d="M423.87 658.87H413.46L405.46 646.49V658.87H397.1V626.69H410.1C411.699 626.656 413.29 626.924 414.79 627.48C416.005 627.923 417.107 628.629 418.018 629.547C418.929 630.464 419.626 631.572 420.06 632.79C420.505 634.021 420.728 635.321 420.72 636.63C420.828 638.773 420.204 640.889 418.95 642.63C417.622 644.241 415.771 645.335 413.72 645.72L423.87 658.87ZM405.47 641.07H407.02C408.362 641.164 409.697 640.812 410.82 640.07C411.234 639.7 411.566 639.246 411.793 638.738C412.02 638.231 412.137 637.681 412.137 637.125C412.137 636.569 412.02 636.02 411.793 635.512C411.566 635.005 411.234 634.551 410.82 634.18C409.697 633.438 408.362 633.087 407.02 633.18H405.44L405.47 641.07Z" fill="#A4A4A4"/>
<path d="M451.36 653.28H439.41L437.48 658.87H428.56L440.81 626.69H449.95L462.2 658.87H453.28L451.36 653.28ZM449.14 646.92L445.38 636.21L441.63 646.92H449.14Z" fill="#A4A4A4"/>
<path d="M474.02 626.69L479.57 647.47L486.4 626.69H493.06L499.89 647.47L505.44 626.69H514.19L504.58 658.87H496.05L489.73 640.22L483.41 658.87H474.92L465.31 626.69H474.02Z" fill="#A4A4A4"/>
</g>
<path d="M591.02 537.11H65.1796C65.1796 537.11 57.0596 539.29 57.0596 562.11C57.0596 584.93 64.2096 587.11 64.2096 587.11H591.93C591.93 587.11 599.08 584.93 599.08 562.11C599.08 539.29 591.02 537.11 591.02 537.11Z" fill="#A4A4A4" stroke="black" stroke-width="5" stroke-miterlimit="10"/>
<g style="mix-blend-mode:multiply" opacity="0.51">
<path d="M590.319 537.11H64.5394C64.5394 537.11 56.4194 539.29 56.4194 562.11C56.4194 584.93 63.5694 587.11 63.5694 587.11H591.289C591.289 587.11 598.439 584.93 598.439 562.11C598.439 539.29 590.319 537.11 590.319 537.11Z" fill="#A4A4A4"/>
<path d="M590.319 537.11H64.5394C64.5394 537.11 56.4194 539.29 56.4194 562.11C56.4194 584.93 63.5694 587.11 63.5694 587.11H591.289C591.289 587.11 598.439 584.93 598.439 562.11C598.439 539.29 590.319 537.11 590.319 537.11Z" stroke="black" stroke-width="5" stroke-miterlimit="10"/>
</g>
<g style="mix-blend-mode:multiply">
<path d="M591.29 578.57H63.5697C63.5697 578.57 57.5697 576.72 56.5697 558.77C56.4797 560.29 56.4297 561.9 56.4297 563.65C56.4297 586.45 63.5797 588.65 63.5797 588.65H591.29C591.29 588.65 598.44 586.47 598.44 563.65C598.44 561.9 598.44 560.29 598.3 558.77C597.31 576.72 591.29 578.57 591.29 578.57Z" fill="#A4A4A4"/>
</g>
<path d="M561.02 408.66H95.1295C64.1895 408.66 56.8095 522.66 56.1795 557.49C56.0795 562.99 60.1795 567.49 65.1795 567.49H591.02C596.02 567.49 600.12 562.97 600.02 557.49C599.34 522.62 591.95 408.66 561.02 408.66Z" fill="white" stroke="black" stroke-width="5" stroke-miterlimit="10"/>
<g style="mix-blend-mode:overlay" opacity="0.65">
<path d="M591.02 558.27H65.1795C63.0194 558.197 60.9533 557.368 59.3415 555.928C57.7297 554.488 56.6744 552.528 56.3595 550.39C56.2695 552.87 56.2095 555.14 56.1795 557.14C56.0795 562.65 60.1795 567.14 65.1795 567.14H591.02C596.02 567.14 600.12 562.63 600.02 557.14C600.02 555.14 599.92 552.87 599.84 550.39C599.521 552.527 598.465 554.485 596.854 555.924C595.242 557.363 593.178 558.193 591.02 558.27V558.27Z" fill="white"/>
</g>
<g style="mix-blend-mode:multiply" opacity="0.44">
<path d="M95.1295 425.3C127.24 425.3 282.799 431.54 320.049 433.06C325.399 433.27 330.739 433.27 336.099 433.06C373.339 431.54 528.909 425.3 561.009 425.3C589.399 425.3 597.95 521.21 599.66 563.98C599.875 563.09 599.979 562.176 599.97 561.26C599.34 526.39 591.97 412.44 560.97 412.44H95.1295C64.1895 412.44 56.8095 526.44 56.1795 561.26C56.1617 562.176 56.2625 563.09 56.4795 563.98C58.1895 521.21 66.7495 425.3 95.1295 425.3Z" fill="#A4A4A4"/>
</g>
<g style="mix-blend-mode:multiply" opacity="0.44">
<path d="M469.56 553.67C497.538 553.67 520.22 529.574 520.22 499.85C520.22 470.126 497.538 446.03 469.56 446.03C441.581 446.03 418.9 470.126 418.9 499.85C418.9 529.574 441.581 553.67 469.56 553.67Z" fill="#A4A4A4"/>
</g>
<g style="mix-blend-mode:multiply">
<path d="M469.45 535.06C490.669 535.06 507.87 516.784 507.87 494.24C507.87 471.696 490.669 453.42 469.45 453.42C448.231 453.42 431.03 471.696 431.03 494.24C431.03 516.784 448.231 535.06 469.45 535.06Z" fill="#A4A4A4"/>
</g>
<g style="mix-blend-mode:multiply">
<path d="M469.45 459.5C489.71 459.5 506.29 476.16 507.76 497.28C507.83 496.28 507.88 495.28 507.88 494.28C507.88 471.73 490.67 453.45 469.45 453.45C448.23 453.45 431.02 471.69 431.02 494.24C431.02 495.24 431.07 496.24 431.14 497.24C432.61 476.16 449.2 459.5 469.45 459.5Z" fill="#A4A4A4"/>
</g>
<g style="mix-blend-mode:multiply" opacity="0.44">
<path d="M469.45 532.73C485.565 532.73 498.63 518.851 498.63 501.73C498.63 484.609 485.565 470.73 469.45 470.73C453.334 470.73 440.27 484.609 440.27 501.73C440.27 518.851 453.334 532.73 469.45 532.73Z" fill="#A4A4A4"/>
</g>
<path d="M469.45 526.15C485.565 526.15 498.63 512.271 498.63 495.15C498.63 478.029 485.565 464.15 469.45 464.15C453.334 464.15 440.27 478.029 440.27 495.15C440.27 512.271 453.334 526.15 469.45 526.15Z" fill="#F1F1F1" stroke="black" stroke-width="4" stroke-miterlimit="10"/>
<g style="mix-blend-mode:overlay" opacity="0.65">
<path d="M469.45 470.88C484.32 470.88 496.59 482.71 498.4 497.99C498.552 496.692 498.629 495.387 498.63 494.08C498.63 476.96 485.57 463.08 469.45 463.08C453.33 463.08 440.27 476.96 440.27 494.08C440.273 495.387 440.353 496.693 440.51 497.99C442.32 482.71 454.58 470.88 469.45 470.88Z" fill="white"/>
</g>
<g style="mix-blend-mode:multiply" opacity="0.44">
<path d="M469.45 518.4C454.58 518.4 442.32 506.57 440.51 491.29C440.353 492.588 440.273 493.893 440.27 495.2C440.27 512.32 453.34 526.2 469.45 526.2C485.56 526.2 498.63 512.32 498.63 495.2C498.629 493.893 498.552 492.588 498.4 491.29C496.59 506.57 484.32 518.4 469.45 518.4Z" fill="#B1B1B1"/>
</g>
<path d="M469.45 546.48C496.136 546.48 517.77 523.499 517.77 495.15C517.77 466.802 496.136 443.82 469.45 443.82C442.763 443.82 421.13 466.802 421.13 495.15C421.13 523.499 442.763 546.48 469.45 546.48Z" stroke="black" stroke-width="5" stroke-miterlimit="10"/>
<g style="mix-blend-mode:overlay" opacity="0.65">
<path d="M470.87 450.23C496.47 450.23 517.4 471.38 519.07 498.12C519.14 496.98 519.19 495.83 519.19 494.67C519.19 466.32 497.56 443.33 470.87 443.33C444.18 443.33 422.56 466.33 422.56 494.67C422.56 495.83 422.6 496.98 422.68 498.12C424.35 471.38 445.28 450.23 470.87 450.23Z" fill="white"/>
</g>
<g style="mix-blend-mode:multiply" opacity="0.44">
<path d="M470.87 541.12C445.28 541.12 424.35 519.98 422.68 493.24C422.6 494.38 422.56 495.53 422.56 496.69C422.56 525.04 444.19 548.02 470.87 548.02C497.55 548.02 519.19 525.02 519.19 496.69C519.19 495.53 519.19 494.38 519.07 493.24C517.4 520 496.47 541.12 470.87 541.12Z" fill="#A4A4A4"/>
</g>
<g style="mix-blend-mode:multiply" opacity="0.44">
<path d="M224.58 455.36C149.96 455.36 141.01 516.36 140.3 539.48C140.15 544.25 143.43 548.2 147.52 548.2H301.64C305.73 548.2 309.01 544.2 308.86 539.48C308.15 516.37 299.2 455.36 224.58 455.36Z" fill="#A4A4A4"/>
</g>
<path d="M223.82 449.15C149.82 449.15 141.01 509.6 140.3 532.5C140.15 537.23 143.41 541.15 147.46 541.15H300.18C304.18 541.15 307.48 537.23 307.34 532.5C306.63 509.6 297.76 449.15 223.82 449.15Z" fill="#F1F1F1" stroke="black" stroke-width="4" stroke-miterlimit="10"/>
<g style="mix-blend-mode:multiply" opacity="0.44">
<path d="M223.82 476.39C280.72 476.39 299.09 512.19 304.82 539.13C305.662 538.251 306.316 537.21 306.744 536.07C307.172 534.931 307.365 533.716 307.31 532.5C306.6 509.6 297.73 449.15 223.79 449.15C149.85 449.15 141.02 509.6 140.3 532.5C140.245 533.716 140.437 534.931 140.865 536.07C141.293 537.21 141.948 538.251 142.79 539.13C148.55 512.19 166.91 476.39 223.82 476.39Z" fill="#B1B1B1"/>
</g>
<g style="mix-blend-mode:overlay" opacity="0.65">
<path d="M223.82 449.15C280.72 449.15 312.23 494.15 304.45 537.34C306.04 535.75 308.95 533.34 308.87 530.68C308.16 507.78 297.76 443.1 223.82 443.1C149.88 443.1 141.02 503.55 140.3 526.45C140.246 527.665 140.439 528.877 140.867 530.015C141.295 531.153 141.949 532.192 142.79 533.07C135.72 494.14 166.91 449.15 223.82 449.15Z" fill="white"/>
</g>
<path d="M259.48 495.15C281.74 495.15 301.88 539.02 301.88 539.02H142.68C142.68 539.02 162.82 495.15 185.08 495.15H259.48Z" fill="#F1F1F1" stroke="black" stroke-width="4" stroke-linecap="round" stroke-linejoin="round"/>
<g style="mix-blend-mode:overlay">
<path d="M223.82 530.68H148.53C145.79 535.6 144.22 539.02 144.22 539.02H303.41C303.41 539.02 301.85 535.6 299.1 530.68H223.82Z" fill="white"/>
</g>
<g style="mix-blend-mode:multiply" opacity="0.44">
<path d="M180.79 509H263.79C278.1 509 291.62 525.26 300.51 539H301.9C301.9 539 281.76 495.13 259.5 495.13H185.1C162.84 495.13 142.7 539 142.7 539H144.09C152.96 525.25 166.48 509 180.79 509Z" fill="#B1B1B1"/>
</g>
<path d="M172.28 464.73C172.28 464.73 178.13 491.65 174.74 497.59" stroke="black" stroke-width="5" stroke-linecap="round" stroke-linejoin="round"/>
<path d="M267.55 462.06C267.55 462.06 261.7 488.99 265.09 494.93" stroke="black" stroke-width="5" stroke-linecap="round" stroke-linejoin="round"/>
<path d="M73.9196 520.63C73.9196 520.63 83.4796 440.52 114.56 439.75C145.64 438.98 194.46 434.87 194.46 434.87C194.46 434.87 110.74 427.43 92.2096 432C73.6796 436.57 69.2396 519.3 73.9196 520.63Z" fill="white"/>
<path d="M495.179 7.79004H162.069C135.249 7.79004 136.639 38.24 136.639 38.24H520.639C520.639 38.24 522.019 7.79004 495.179 7.79004Z" fill="white" stroke="black" stroke-width="5" stroke-miterlimit="10"/>
<g style="mix-blend-mode:overlay" opacity="0.71">
<path d="M138.84 38.24C139.9 29.44 144.51 13.4 163.97 13.4H497.08C516.54 13.4 521.14 29.4 522.21 38.24H522.51C522.51 38.24 523.89 7.79004 497.08 7.79004H164.02C137.21 7.79004 138.59 38.24 138.59 38.24H138.84Z" fill="white"/>
</g>
<g style="mix-blend-mode:multiply" opacity="0.44">
<path d="M329.23 30H137.92C137.424 32.6774 137.196 35.3975 137.24 38.12H521.24C521.283 35.3975 521.055 32.6774 520.56 30H329.23Z" fill="#A4A4A4"/>
</g>
<path d="M520.61 37.24H136.61C136.61 37.24 92.7695 32.3 92.7695 95.87H564.48C564.48 32.3 520.61 37.24 520.61 37.24Z" fill="#A4A4A4" stroke="black" stroke-width="5" stroke-miterlimit="10"/>
<g style="mix-blend-mode:multiply" opacity="0.44">
<path d="M559.619 68.1101C547.019 84.5801 523.78 82.7201 523.78 82.7201H140.41C140.41 82.7201 117.2 84.5801 104.57 68.1101C99.6495 74.3101 96.2395 83.1801 96.2395 95.8701H567.949C567.949 83.1801 564.539 74.3101 559.619 68.1101Z" fill="#A4A4A4"/>
</g>
<g style="mix-blend-mode:overlay" opacity="0.47">
<path d="M138.539 47.85H522.539C522.539 47.85 561.349 43.48 565.959 95.85H566.409C566.409 32.28 522.539 37.22 522.539 37.22H138.539C138.539 37.22 94.6694 32.3 94.6694 95.87H95.1194C99.7294 43.48 138.539 47.85 138.539 47.85Z" fill="white"/>
</g>
<g style="mix-blend-mode:multiply" opacity="0.92">
<path d="M422.019 53.7598H234.579C226.079 53.7598 219.169 60.1998 219.169 68.1098C219.169 76.0198 226.079 82.4698 234.579 82.4698H422.019C430.519 82.4698 437.439 76.0298 437.439 68.1098C437.439 60.1898 430.539 53.7598 422.019 53.7598Z" fill="#A4A4A4"/>
</g>
<path d="M422.019 48.3999H234.579C226.079 48.3999 219.169 54.8399 219.169 62.7599C219.169 70.6799 226.079 77.1199 234.579 77.1199H422.019C430.519 77.1199 437.439 70.6799 437.439 62.7599C437.439 54.8399 430.539 48.3999 422.019 48.3999Z" fill="#E5E5E5" stroke="black" stroke-width="4" stroke-miterlimit="10"/>
<g style="mix-blend-mode:multiply" opacity="0.44">
<path d="M422.95 68.1098H235.5C232.345 68.1667 229.25 67.2522 226.632 65.4902C224.015 63.7282 222.003 61.2039 220.87 58.2598C220.348 59.7028 220.081 61.2254 220.08 62.7598C220.08 70.6798 227 77.1198 235.5 77.1198H422.95C431.45 77.1198 438.37 70.6798 438.37 62.7598C438.368 61.2254 438.101 59.7028 437.58 58.2598C436.446 61.2039 434.434 63.7282 431.817 65.4902C429.2 67.2522 426.104 68.1667 422.95 68.1098V68.1098Z" fill="#B1B1B1"/>
</g>
<g style="mix-blend-mode:overlay" opacity="0.47">
<path d="M234.579 52.1499H422.019C429.839 52.1499 436.299 57.5999 437.289 64.6299C437.385 64.0111 437.435 63.3861 437.439 62.7599C437.439 54.8499 430.519 48.3999 422.019 48.3999H234.579C226.079 48.3999 219.169 54.8499 219.169 62.7599C219.173 63.3861 219.224 64.0111 219.319 64.6299C220.309 57.5999 226.769 52.1499 234.579 52.1499Z" fill="white"/>
</g>
<path d="M415.019 54.9199H241.579C236.959 54.9199 233.169 57.9199 233.169 61.5199C233.169 65.1199 236.959 68.1099 241.579 68.1099H415.019C419.649 68.1099 423.439 65.1099 423.439 61.5199C423.439 57.9299 419.669 54.9199 415.019 54.9199Z" fill="black"/>
<g style="mix-blend-mode:multiply" opacity="0.44">
<path d="M529.21 79.1301C533.959 79.1301 537.81 75.038 537.81 69.9901C537.81 64.9422 533.959 60.8501 529.21 60.8501C524.46 60.8501 520.61 64.9422 520.61 69.9901C520.61 75.038 524.46 79.1301 529.21 79.1301Z" fill="#A4A4A4"/>
</g>
<path d="M529.21 74.52C533.959 74.52 537.81 70.4279 537.81 65.38C537.81 60.3321 533.959 56.24 529.21 56.24C524.46 56.24 520.61 60.3321 520.61 65.38C520.61 70.4279 524.46 74.52 529.21 74.52Z" fill="white" stroke="black" stroke-width="3" stroke-miterlimit="10"/>
<g style="mix-blend-mode:multiply" opacity="0.44">
<path d="M127.41 79.1301C132.159 79.1301 136.01 75.038 136.01 69.9901C136.01 64.9422 132.159 60.8501 127.41 60.8501C122.66 60.8501 118.81 64.9422 118.81 69.9901C118.81 75.038 122.66 79.1301 127.41 79.1301Z" fill="#A4A4A4"/>
</g>
<path d="M127.41 74.52C132.159 74.52 136.01 70.4279 136.01 65.38C136.01 60.3321 132.159 56.24 127.41 56.24C122.66 56.24 118.81 60.3321 118.81 65.38C118.81 70.4279 122.66 74.52 127.41 74.52Z" fill="white" stroke="black" stroke-width="3" stroke-miterlimit="10"/>
<path d="M98.8396 89.9999C98.8396 89.9999 113.75 55.7699 160.02 52.5199C206.29 49.2699 211.59 48.3999 211.59 48.3999C211.59 48.3999 136.53 44.9599 122.89 49.8199C109.25 54.6799 100.77 71.9199 98.8396 89.9999Z" fill="white"/>
<path d="M577.83 96H80.1C80.1 96 34 123.86 34 258C34 392.14 68.77 420 93.11 420H564.82C589.16 420 623.92 392.13 623.92 258C623.92 123.87 577.83 96 577.83 96Z" fill="#F1F1F1" stroke="black" stroke-width="4" stroke-miterlimit="10"/>
<g style="mix-blend-mode:darken">
<path d="M566.17 346V135.57C566.17 124.86 569.75 113.57 575.06 102.76C563.45 115.07 541.14 141.76 541.14 164.97V323.29C541.14 323.29 539.29 361.24 587.82 410.49C564.91 371.82 566.17 346 566.17 346Z" fill="#CBCBCB"/>
</g>
<g style="mix-blend-mode:darken">
<path d="M91.0697 346V135.57C91.0697 124.86 87.4997 113.57 82.1897 102.76C93.7997 115.07 116.1 141.76 116.1 164.97V323.29C116.1 323.29 117.96 361.24 69.4297 410.49C92.3397 371.82 91.0697 346 91.0697 346Z" fill="#CBCBCB"/>
</g>
<path d="M79.7597 95.8701C79.7597 95.8701 120.52 133.57 120.52 165V323.29C120.52 323.29 122.43 362.24 71.9097 412.44" stroke="black" stroke-width="4" stroke-miterlimit="10"/>
<path d="M576.879 95.8701C576.879 95.8701 536.119 133.57 536.119 165V323.29C536.119 323.29 534.199 362.24 584.729 412.44" stroke="black" stroke-width="4" stroke-miterlimit="10"/>
<path d="M120.52 164.98H536.11" stroke="black" stroke-width="4" stroke-miterlimit="10"/>
<path d="M120.04 330.11H536.11" stroke="black" stroke-width="4" stroke-miterlimit="10"/>
<g style="mix-blend-mode:darken">
<path d="M524.11 164.98H132.52C125.892 164.98 120.52 170.353 120.52 176.98V318.11C120.52 324.738 125.892 330.11 132.52 330.11H524.11C530.737 330.11 536.11 324.738 536.11 318.11V176.98C536.11 170.353 530.737 164.98 524.11 164.98Z" fill="#CBCBCB"/>
</g>
<g style="mix-blend-mode:darken">
<path d="M111.4 374C115.533 368.319 120.946 363.692 127.2 360.492C133.455 357.292 140.374 355.609 147.4 355.58H502.84C511.965 355.597 520.898 358.198 528.605 363.083C536.313 367.968 542.479 374.936 546.39 383.18C553.39 397.74 563.3 406.46 585.13 416.18L584.94 415.87C549.19 380.36 539.7 350.48 537.2 336.03H119.86C117.36 350.48 107.86 380.36 72.1196 415.87C92.6696 395.38 104.55 383.3 111.4 374Z" fill="#CBCBCB"/>
</g>
<g style="mix-blend-mode:darken">
<path d="M503.43 138.63C503.43 109.05 575.76 97.5701 575.78 97.5601C575.78 97.5601 535.02 133.09 535.02 162.67H119.42C119.42 133.09 78.6597 97.5601 78.6597 97.5601C78.6597 97.5601 142.96 107.56 142.96 137.11C142.96 137.11 173.01 148.85 327.22 148.85C481.43 148.85 503.43 138.63 503.43 138.63Z" fill="#CBCBCB"/>
</g>
<g style="mix-blend-mode:darken">
<path d="M222.24 400.77C248.843 400.77 270.41 395.254 270.41 388.45C270.41 381.646 248.843 376.13 222.24 376.13C195.636 376.13 174.07 381.646 174.07 388.45C174.07 395.254 195.636 400.77 222.24 400.77Z" fill="#CBCBCB"/>
</g>
<path d="M222.24 400.77C248.843 400.77 270.41 396.091 270.41 390.32C270.41 384.549 248.843 379.87 222.24 379.87C195.636 379.87 174.07 384.549 174.07 390.32C174.07 396.091 195.636 400.77 222.24 400.77Z" fill="#666666"/>
<g style="mix-blend-mode:multiply" opacity="0.72">
<path d="M222.32 385.83C244.15 385.83 262.58 388.98 268.5 393.3C269.79 392.36 270.5 391.36 270.5 390.3C270.5 384.53 248.93 379.85 222.32 379.85C195.71 379.85 174.15 384.53 174.15 390.3C174.15 391.3 174.86 392.3 176.15 393.3C182.07 389 200.5 385.83 222.32 385.83Z" fill="#B1B1B1"/>
</g>
<g style="mix-blend-mode:hard-light">
<path d="M222.32 399C197.08 399 176.38 394.79 174.32 389.43C174.206 389.706 174.145 390.001 174.14 390.3C174.14 396.07 195.71 400.75 222.31 400.75C248.91 400.75 270.49 396.07 270.49 390.3C270.484 390.001 270.423 389.706 270.31 389.43C268.27 394.81 247.57 399 222.32 399Z" fill="white"/>
</g>
<g style="mix-blend-mode:multiply" opacity="0.44">
<path d="M579.99 555.62C584.739 555.62 588.59 551.528 588.59 546.48C588.59 541.432 584.739 537.34 579.99 537.34C575.24 537.34 571.39 541.432 571.39 546.48C571.39 551.528 575.24 555.62 579.99 555.62Z" fill="#A4A4A4"/>
</g>
<path d="M579.99 551.01C584.739 551.01 588.59 546.918 588.59 541.87C588.59 536.822 584.739 532.73 579.99 532.73C575.24 532.73 571.39 536.822 571.39 541.87C571.39 546.918 575.24 551.01 579.99 551.01Z" fill="white" stroke="black" stroke-width="3" stroke-miterlimit="10"/>
<g style="mix-blend-mode:darken">
<path d="M571.38 541.1C571.31 542.273 571.481 543.447 571.883 544.552C572.284 545.656 572.906 546.666 573.712 547.521C574.518 548.376 575.49 549.057 576.569 549.523C577.647 549.988 578.81 550.228 579.985 550.228C581.159 550.228 582.322 549.988 583.4 549.523C584.479 549.057 585.451 548.376 586.257 547.521C587.063 546.666 587.685 545.656 588.086 544.552C588.488 543.447 588.659 542.273 588.59 541.1C588.59 541.1 585.869 543.46 579.989 543.46C574.109 543.46 571.38 541.1 571.38 541.1Z" fill="#CCCCCC"/>
</g>
<g style="mix-blend-mode:multiply" opacity="0.44">
<path d="M80.5094 555.62C85.2591 555.62 89.1094 551.528 89.1094 546.48C89.1094 541.432 85.2591 537.34 80.5094 537.34C75.7598 537.34 71.9094 541.432 71.9094 546.48C71.9094 551.528 75.7598 555.62 80.5094 555.62Z" fill="#A4A4A4"/>
</g>
<path d="M80.5094 551.01C85.2591 551.01 89.1094 546.918 89.1094 541.87C89.1094 536.822 85.2591 532.73 80.5094 532.73C75.7598 532.73 71.9094 536.822 71.9094 541.87C71.9094 546.918 75.7598 551.01 80.5094 551.01Z" fill="white" stroke="black" stroke-width="3" stroke-miterlimit="10"/>
<g style="mix-blend-mode:darken">
<path d="M71.9095 541.1C71.8403 542.273 72.0114 543.447 72.4126 544.552C72.8137 545.656 73.4363 546.666 74.2421 547.521C75.048 548.376 76.0201 549.057 77.0987 549.523C78.1773 549.988 79.3397 550.228 80.5145 550.228C81.6893 550.228 82.8517 549.988 83.9304 549.523C85.009 549.057 85.9811 548.376 86.7869 547.521C87.5928 546.666 88.2154 545.656 88.6165 544.552C89.0176 543.447 89.1888 542.273 89.1195 541.1C89.1195 541.1 86.3995 543.46 80.5095 543.46C74.6195 543.46 71.9095 541.1 71.9095 541.1Z" fill="#CCCCCC"/>
</g>
<g clip-path="url(#clip0_102_5046)">
<path d="M517.92 485H419.25C413.589 485 409 489.589 409 495.25V496.53C409 502.191 413.589 506.78 419.25 506.78H517.92C523.581 506.78 528.17 502.191 528.17 496.53V495.25C528.17 489.589 523.581 485 517.92 485Z" fill="#F1F1F1" stroke="black" stroke-width="4" stroke-miterlimit="10"/>
<g style="mix-blend-mode:multiply" opacity="0.44">
<path d="M517.92 499.93H419.25C416.94 499.921 414.7 499.133 412.893 497.695C411.086 496.256 409.816 494.249 409.29 492C409.098 492.782 409.001 493.585 409 494.39V495.67C409.008 498.386 410.09 500.989 412.011 502.909C413.931 504.83 416.534 505.912 419.25 505.92H517.92C520.636 505.912 523.239 504.83 525.159 502.909C527.08 500.989 528.162 498.386 528.17 495.67V494.39C528.172 493.585 528.078 492.783 527.89 492C527.36 494.249 526.088 496.255 524.28 497.693C522.471 499.132 520.231 499.92 517.92 499.93V499.93Z" fill="#B1B1B1"/>
</g>
<g style="mix-blend-mode:overlay" opacity="0.65">
<path d="M419.25 491.08H517.92C520.232 491.084 522.475 491.865 524.288 493.298C526.102 494.731 527.381 496.732 527.92 498.98C528.105 498.207 528.199 497.415 528.2 496.62V495.34C528.192 492.619 527.105 490.012 525.178 488.09C523.251 486.169 520.641 485.09 517.92 485.09H419.25C416.534 485.098 413.931 486.18 412.011 488.101C410.09 490.022 409.008 492.624 409 495.34V496.62C409.003 497.422 409.1 498.221 409.29 499C409.82 496.753 411.091 494.75 412.897 493.314C414.704 491.877 416.942 491.09 419.25 491.08V491.08Z" fill="white"/>
</g>
</g>
<path d="M497.08 8C520.87 8 522.46 32 522.52 37.36H522.73C523.04 37.36 523.38 37.36 523.73 37.36H524.67C532.41 37.36 558.58 40.2 564.95 77.88C567.04 83.7158 568.057 89.882 567.95 96.08H577.49C577.49 96.08 623.58 123.95 623.58 258.08C623.58 352.32 606.43 394.08 587.78 410.63V410.69C587.78 410.69 587.78 410.69 587.78 410.64C586.324 411.928 584.784 413.117 583.17 414.2C583.76 414.8 584.34 415.4 584.95 416L585.14 416.31C584.08 415.84 583.06 415.38 582.06 414.91C579.885 416.272 577.568 417.392 575.15 418.25C592.94 444.25 598.64 517.25 599.79 550.64C599.87 553.13 599.93 555.4 599.97 557.39C599.97 557.39 599.97 557.49 599.97 557.54V557.61L626.78 606.51C629.253 612.433 630.807 618.698 631.39 625.09C631.48 626.27 631.53 627.42 631.55 628.55V628.65C631.84 660.52 600.9 674.82 600.9 674.82H55.2497C55.2497 674.82 53.8797 674.19 51.7197 672.89C52.1297 673.34 52.5397 673.79 52.9497 674.22C45.7897 670.16 24.3397 655.78 24.6097 629.22C24.7036 621.418 26.3241 613.71 29.3797 606.53L56.1797 557.63V557.56C56.1747 557.51 56.1747 557.46 56.1797 557.41C56.1797 555.41 56.2697 553.15 56.3597 550.66C57.5097 517.11 63.2497 443.66 81.2197 417.95C78.6701 416.962 76.2411 415.687 73.9797 414.15L72.1197 416C72.7497 415.37 73.3597 414.75 73.9697 414.12C72.3977 413.061 70.8977 411.898 69.4797 410.64V410.69V410.63C50.8197 394.11 33.6597 352.33 33.6597 258.09C33.6597 133.09 73.6597 100.39 79.1297 96.5L78.6597 96.08L79.5297 96.23L79.7597 96.08H92.7597C92.7597 41.08 125.62 37.36 134.46 37.36H135.4C135.76 37.36 136.1 37.36 136.4 37.36H136.62C136.69 32 138.27 8 162.07 8H497.07M519.92 30.25H520.36C520.07 29.39 519.74 28.54 519.36 27.68C519.58 28.56 519.77 29.42 519.92 30.25ZM521.22 37.4H522.06C521.762 35.3687 521.311 33.363 520.71 31.4C521.021 33.4123 521.191 35.4439 521.22 37.48M497.08 0H162.08C141.22 0 131.72 14.68 129.29 29.68C120.421 30.7147 112.042 34.2995 105.17 40C93.0697 50.08 86.2997 66.25 85.0197 88.08H79.7597H79.2197H78.6597C77.2273 88.0833 75.8221 88.471 74.5908 89.2028C73.3595 89.9345 72.3472 90.9834 71.6597 92.24C59.5297 102.71 25.6597 142.31 25.6597 258.09C25.6597 339.71 38.3197 392.77 63.2997 415.84C63.5598 416.152 63.844 416.443 64.1497 416.71C64.3119 418.574 65.1222 420.322 66.4397 421.65C67.1785 422.397 68.0545 422.995 69.0197 423.41C52.4897 459.81 49.0197 533.09 48.3897 549.89C48.3897 550.04 48.3897 550.19 48.3897 550.33C48.3297 552.14 48.2797 553.86 48.2397 555.46L22.3597 602.63C22.2103 602.902 22.0768 603.183 21.9597 603.47C18.5352 611.597 16.7184 620.311 16.6097 629.13C16.3197 660.2 41.3397 676.79 49.0097 681.13C49.9574 681.67 51.0056 682.01 52.0897 682.13C53.0879 682.559 54.1631 682.78 55.2497 682.78H600.89C602.049 682.779 603.194 682.53 604.25 682.05C605.7 681.37 639.87 665.15 639.54 628.54C639.544 628.477 639.544 628.413 639.54 628.35C639.54 627.03 639.47 625.72 639.36 624.41C638.714 617.207 636.971 610.146 634.19 603.47C634.073 603.183 633.939 602.902 633.79 602.63L607.94 555.46C607.9 553.853 607.85 552.143 607.79 550.33C607.79 550.19 607.79 550.04 607.79 549.89C607.2 533.22 603.72 460.6 587.38 424.01C588.986 423.546 590.406 422.59 591.441 421.277C592.476 419.964 593.073 418.36 593.15 416.69C593.449 416.429 593.726 416.145 593.98 415.84C618.98 392.77 631.61 339.71 631.61 258.09C631.61 201.24 623.61 155.88 607.76 123.29C595.56 98.15 583.04 90.07 581.66 89.24C580.411 88.4828 578.98 88.0817 577.52 88.08H575.52C575.055 83.8937 574.116 79.7739 572.72 75.8C569.53 57.8 561.79 44.68 549.72 36.8C543.743 32.9312 536.953 30.4946 529.88 29.68C527.43 14.67 517.93 0 497.08 0Z" fill="black"/>
<path d="M228.722 328.865C250.826 341.419 271.414 347.74 277.425 344.19C277.427 337.205 261.449 322.761 239.318 310.192C217.188 297.623 196.6 291.302 190.592 294.888C190.643 301.88 206.618 316.311 228.722 328.865Z" fill="#B2B2B2" stroke="black" stroke-width="2" stroke-linecap="round" stroke-linejoin="round"/>
<path d="M239.327 310.197C262.718 323.482 279.249 338.869 277.281 345.319C277.751 344.505 278.281 343.726 278.748 342.898C285.352 331.267 287.066 317.489 283.512 304.595C279.959 291.701 271.428 280.746 259.797 274.141C248.166 267.537 234.388 265.823 221.494 269.376C208.6 272.93 197.645 281.461 191.04 293.092C190.54 293.958 190.09 294.737 189.707 295.601C194.252 290.569 215.931 296.92 239.327 310.197Z" fill="#E5E5E5" stroke="black" stroke-width="4" stroke-linecap="round" stroke-linejoin="round"/>
<g style="mix-blend-mode:overlay" opacity="0.65">
<path d="M259.797 274.141C254.038 270.871 247.692 268.767 241.119 267.949C234.547 267.131 227.879 267.616 221.494 269.376C215.109 271.136 209.134 274.136 203.908 278.205C198.683 282.274 194.311 287.333 191.04 293.092C190.54 293.958 190.09 294.737 189.707 295.601C189.894 295.403 190.102 295.225 190.326 295.069C195.328 288.297 201.945 282.884 209.573 279.322C217.202 275.761 225.6 274.163 234.004 274.676C233.715 277.177 236.876 279.902 241.302 280.876C245.728 281.849 249.547 280.775 250.466 278.523C252.317 279.298 254.12 280.182 255.867 281.168C266.597 287.263 274.72 297.079 278.701 308.758C282.682 320.438 282.244 333.172 277.47 344.551C277.452 344.821 277.406 345.088 277.333 345.349C277.803 344.535 278.333 343.756 278.8 342.928C282.073 337.165 284.178 330.813 284.994 324.235C285.81 317.658 285.322 310.984 283.557 304.596C281.792 298.207 278.785 292.229 274.709 287.003C270.632 281.778 265.565 277.407 259.797 274.141V274.141Z" fill="white"/>
</g>
<path d="M226.983 331.937C204.137 318.967 187.833 303.988 188.922 297.261C183.762 308.715 183.063 321.683 186.961 333.625C190.86 345.567 199.076 355.625 210 361.828C220.925 368.031 233.771 369.933 246.024 367.163C258.277 364.392 269.055 357.147 276.248 346.847C271.039 351.23 249.815 344.911 226.983 331.937Z" fill="white" stroke="black" stroke-width="4" stroke-linecap="round" stroke-linejoin="round"/>
<g style="mix-blend-mode:multiply">
<path d="M214.194 354.449C204.707 349.062 197.107 340.887 192.426 331.033C187.746 321.179 186.211 310.123 188.029 299.367C183.531 310.679 183.276 323.237 187.313 334.722C191.349 346.208 199.404 355.845 209.99 361.856C220.577 367.867 232.981 369.845 244.912 367.426C256.843 365.007 267.496 358.353 274.905 348.693C266.599 355.766 256.318 360.113 245.457 361.142C234.596 362.172 223.681 359.835 214.194 354.449V354.449Z" fill="white"/>
</g>
<path d="M277.425 344.19C271.414 347.74 250.826 341.419 228.722 328.865C206.618 316.311 190.643 301.88 190.601 294.893C190.27 295.085 189.969 295.324 189.707 295.601C189.432 296.158 189.165 296.72 188.907 297.287C187.833 303.988 204.111 318.952 226.968 331.963C249.824 344.975 271.024 351.256 276.218 346.899C276.58 346.392 276.925 345.875 277.266 345.345C277.38 344.971 277.434 344.581 277.425 344.19V344.19Z" fill="white" stroke="black" stroke-width="2" stroke-linecap="round" stroke-linejoin="round"/>
<path d="M232.805 321.946C231.167 320.965 229.696 319.695 228.391 318.137C227.086 316.579 226.164 314.691 225.625 312.473C225.094 310.242 225.123 307.66 225.713 304.729C226.311 301.785 227.685 298.45 229.837 294.723C231.898 291.154 234.058 288.185 236.318 285.816C238.586 283.434 240.901 281.665 243.265 280.511C245.636 279.343 248.005 278.786 250.371 278.84C252.75 278.901 255.074 279.587 257.344 280.897C259.601 282.2 261.347 283.812 262.583 285.733C263.839 287.648 264.563 289.728 264.754 291.972C264.945 294.217 264.602 296.477 263.726 298.753L258.923 295.98C259.523 293.912 259.524 291.91 258.928 289.973C258.331 288.037 256.97 286.455 254.844 285.228C251.721 283.425 248.477 283.362 245.111 285.04C241.758 286.726 238.659 290.019 235.812 294.919L236.127 295.101C237.506 294.41 238.928 293.962 240.393 293.758C241.878 293.549 243.363 293.584 244.846 293.863C246.33 294.142 247.76 294.679 249.138 295.475C251.448 296.808 253.227 298.605 254.476 300.866C255.733 303.113 256.355 305.581 256.343 308.268C256.339 310.943 255.586 313.579 254.086 316.177C252.647 318.67 250.771 320.631 248.459 322.06C246.154 323.477 243.639 324.211 240.914 324.265C238.209 324.313 235.506 323.54 232.805 321.946ZM235.305 317.615C236.959 318.57 238.68 319.013 240.47 318.944C242.272 318.882 243.955 318.376 245.519 317.424C247.097 316.48 248.378 315.155 249.363 313.45C250.325 311.783 250.826 310.052 250.866 308.255C250.926 306.453 250.542 304.77 249.713 303.207C248.896 301.651 247.662 300.396 246.008 299.441C244.762 298.721 243.457 298.3 242.093 298.178C240.736 298.042 239.405 298.166 238.099 298.549C236.806 298.94 235.612 299.554 234.517 300.391C233.429 301.215 232.536 302.23 231.839 303.437C230.915 305.038 230.425 306.75 230.37 308.573C230.328 310.403 230.717 312.123 231.537 313.734C232.37 315.352 233.626 316.646 235.305 317.615Z" fill="white"/>
<path d="M232.805 321.946L232.292 322.804L232.297 322.807L232.805 321.946ZM228.391 318.137L227.624 318.779L228.391 318.137ZM225.625 312.473L224.652 312.704L224.654 312.709L225.625 312.473ZM225.713 304.729L224.733 304.53L224.733 304.532L225.713 304.729ZM236.318 285.816L237.042 286.506L237.042 286.505L236.318 285.816ZM243.265 280.511L243.704 281.409L243.707 281.408L243.265 280.511ZM250.371 278.84L250.397 277.84L250.394 277.84L250.371 278.84ZM262.583 285.733L261.742 286.274L261.747 286.281L262.583 285.733ZM264.754 291.972L265.75 291.888L265.75 291.888L264.754 291.972ZM263.726 298.753L263.226 299.619L264.239 300.204L264.659 299.113L263.726 298.753ZM258.923 295.98L257.963 295.702L257.745 296.455L258.423 296.847L258.923 295.98ZM258.928 289.973L257.972 290.268L258.928 289.973ZM245.111 285.04L244.665 284.146L244.662 284.147L245.111 285.04ZM235.812 294.919L234.948 294.417L234.444 295.284L235.312 295.785L235.812 294.919ZM236.127 295.101L235.627 295.967L236.094 296.236L236.575 295.995L236.127 295.101ZM240.393 293.758L240.531 294.749L240.532 294.749L240.393 293.758ZM244.846 293.863L245.031 292.88L244.846 293.863ZM254.476 300.866L253.601 301.349L253.603 301.354L254.476 300.866ZM256.343 308.268L255.343 308.264L255.343 308.267L256.343 308.268ZM248.459 322.06L248.982 322.912L248.985 322.911L248.459 322.06ZM240.914 324.265L240.932 325.265L240.933 325.265L240.914 324.265ZM240.47 318.944L240.435 317.944L240.431 317.944L240.47 318.944ZM245.519 317.424L245.006 316.566L245 316.57L245.519 317.424ZM250.866 308.255L249.866 308.222L249.866 308.233L250.866 308.255ZM249.713 303.207L248.827 303.671L248.829 303.675L249.713 303.207ZM242.093 298.178L241.993 299.173L242.003 299.174L242.093 298.178ZM238.099 298.549L237.818 297.589L237.81 297.592L238.099 298.549ZM234.517 300.391L235.12 301.188L235.124 301.185L234.517 300.391ZM230.37 308.573L229.371 308.542L229.37 308.55L230.37 308.573ZM231.537 313.734L230.646 314.187L230.648 314.191L231.537 313.734ZM233.319 321.088C231.783 320.168 230.395 318.973 229.158 317.495L227.624 318.779C228.996 320.417 230.552 321.762 232.292 322.804L233.319 321.088ZM229.158 317.495C227.963 316.069 227.104 314.324 226.597 312.237L224.654 312.709C225.224 315.058 226.209 317.089 227.624 318.779L229.158 317.495ZM226.598 312.241C226.109 310.187 226.124 307.757 226.694 304.927L224.733 304.532C224.123 307.564 224.079 310.297 224.652 312.704L226.598 312.241ZM226.693 304.928C227.262 302.125 228.584 298.893 230.703 295.223L228.971 294.223C226.787 298.007 225.359 301.446 224.733 304.53L226.693 304.928ZM230.703 295.223C232.734 291.706 234.848 288.805 237.042 286.506L235.594 285.126C233.268 287.565 231.062 290.602 228.971 294.223L230.703 295.223ZM237.042 286.505C239.248 284.189 241.47 282.5 243.704 281.409L242.826 279.612C240.333 280.83 237.924 282.679 235.594 285.127L237.042 286.505ZM243.707 281.408C245.951 280.303 248.161 279.79 250.348 279.839L250.394 277.84C247.849 277.782 245.322 278.383 242.823 279.613L243.707 281.408ZM250.345 279.839C252.541 279.896 254.704 280.528 256.844 281.763L257.844 280.031C255.445 278.646 252.959 277.906 250.397 277.84L250.345 279.839ZM256.844 281.763C258.983 282.998 260.604 284.505 261.742 286.274L263.424 285.192C262.091 283.119 260.22 281.403 257.844 280.031L256.844 281.763ZM261.747 286.281C262.914 288.06 263.581 289.981 263.758 292.057L265.75 291.888C265.545 289.475 264.765 287.236 263.419 285.184L261.747 286.281ZM263.758 292.057C263.935 294.139 263.619 296.248 262.793 298.394L264.659 299.113C265.586 296.707 265.955 294.296 265.75 291.888L263.758 292.057ZM264.226 297.887L259.423 295.114L258.423 296.847L263.226 299.619L264.226 297.887ZM259.884 296.259C260.534 294.015 260.541 291.814 259.883 289.679L257.972 290.268C258.507 292.006 258.512 293.809 257.963 295.702L259.884 296.259ZM259.883 289.679C259.197 287.452 257.64 285.687 255.344 284.362L254.344 286.094C256.3 287.223 257.465 288.621 257.972 290.268L259.883 289.679ZM255.344 284.362C251.916 282.382 248.316 282.325 244.665 284.146L245.557 285.935C248.638 284.399 251.527 284.467 254.344 286.094L255.344 284.362ZM244.662 284.147C241.068 285.954 237.845 289.429 234.948 294.417L236.677 295.421C239.472 290.609 242.449 287.499 245.56 285.934L244.662 284.147ZM235.312 295.785L235.627 295.967L236.627 294.235L236.312 294.053L235.312 295.785ZM236.575 295.995C237.861 295.351 239.178 294.937 240.531 294.749L240.255 292.768C238.677 292.988 237.151 293.469 235.679 294.207L236.575 295.995ZM240.532 294.749C241.909 294.554 243.284 294.586 244.661 294.846L245.031 292.88C243.441 292.581 241.847 292.543 240.253 292.768L240.532 294.749ZM244.661 294.846C246.028 295.103 247.353 295.599 248.638 296.341L249.638 294.609C248.168 293.76 246.631 293.181 245.031 292.88L244.661 294.846ZM248.638 296.341C250.795 297.586 252.442 299.253 253.601 301.349L255.351 300.382C254.011 297.957 252.1 296.03 249.638 294.609L248.638 296.341ZM253.603 301.354C254.772 303.444 255.354 305.741 255.343 308.264L257.343 308.273C257.356 305.421 256.693 302.783 255.349 300.378L253.603 301.354ZM255.343 308.267C255.339 310.745 254.644 313.211 253.22 315.677L254.952 316.677C256.529 313.946 257.338 311.14 257.343 308.27L255.343 308.267ZM253.22 315.677C251.859 318.035 250.096 319.873 247.933 321.21L248.985 322.911C251.446 321.39 253.435 319.304 254.952 316.677L253.22 315.677ZM247.935 321.208C245.784 322.53 243.443 323.215 240.894 323.265L240.933 325.265C243.835 325.208 246.525 324.423 248.982 322.912L247.935 321.208ZM240.896 323.265C238.404 323.31 235.881 322.6 233.314 321.084L232.297 322.807C235.131 324.48 238.014 325.317 240.932 325.265L240.896 323.265ZM234.805 318.481C236.611 319.524 238.518 320.02 240.508 319.943L240.431 317.944C238.843 318.006 237.307 317.616 235.805 316.749L234.805 318.481ZM240.504 319.943C242.48 319.876 244.331 319.318 246.039 318.278L245 316.57C243.58 317.433 242.064 317.889 240.435 317.944L240.504 319.943ZM246.033 318.282C247.767 317.245 249.165 315.792 250.229 313.95L248.497 312.95C247.59 314.519 246.427 315.716 245.006 316.566L246.033 318.282ZM250.229 313.95C251.269 312.148 251.821 310.254 251.865 308.277L249.866 308.233C249.83 309.85 249.381 311.418 248.497 312.95L250.229 313.95ZM251.865 308.289C251.931 306.316 251.509 304.459 250.596 302.738L248.829 303.675C249.575 305.082 249.921 306.591 249.866 308.222L251.865 308.289ZM250.598 302.742C249.686 301.004 248.311 299.616 246.508 298.575L245.508 300.307C247.012 301.176 248.106 302.298 248.827 303.671L250.598 302.742ZM246.508 298.575C245.143 297.787 243.698 297.318 242.182 297.182L242.003 299.174C243.215 299.283 244.381 299.656 245.508 300.307L246.508 298.575ZM242.192 297.183C240.708 297.034 239.247 297.17 237.818 297.589L238.381 299.508C239.563 299.162 240.765 299.05 241.993 299.173L242.192 297.183ZM237.81 297.592C236.4 298.018 235.098 298.688 233.91 299.596L235.124 301.185C236.126 300.419 237.213 299.861 238.389 299.506L237.81 297.592ZM233.913 299.593C232.716 300.5 231.735 301.617 230.973 302.937L232.705 303.937C233.337 302.843 234.141 301.929 235.12 301.188L233.913 299.593ZM230.973 302.937C229.967 304.679 229.431 306.552 229.371 308.542L231.37 308.603C231.42 306.948 231.862 305.397 232.705 303.937L230.973 302.937ZM229.37 308.55C229.325 310.543 229.75 312.428 230.646 314.187L232.428 313.28C231.684 311.819 231.332 310.263 231.37 308.596L229.37 308.55ZM230.648 314.191C231.574 315.992 232.971 317.422 234.805 318.481L235.805 316.749C234.281 315.869 233.165 314.712 232.426 313.276L230.648 314.191Z" fill="black"/>
<path d="M286.722 370.171C308.826 382.725 329.414 389.046 335.425 385.495C335.427 378.511 319.449 364.066 297.318 351.497C275.188 338.928 254.6 332.607 248.592 336.194C248.643 343.186 264.618 357.617 286.722 370.171Z" fill="#B2B2B2" stroke="black" stroke-width="2" stroke-linecap="round" stroke-linejoin="round"/>
<path d="M297.327 351.502C320.718 364.788 337.249 380.175 335.281 386.624C335.751 385.81 336.281 385.031 336.748 384.204C343.352 372.573 345.066 358.795 341.512 345.9C337.959 333.006 329.428 322.051 317.797 315.447C306.166 308.842 292.388 307.128 279.494 310.682C266.6 314.236 255.645 322.766 249.04 334.397C248.54 335.263 248.09 336.043 247.707 336.907C252.252 331.875 273.931 338.225 297.327 351.502Z" fill="#E5E5E5" stroke="black" stroke-width="4" stroke-linecap="round" stroke-linejoin="round"/>
<g style="mix-blend-mode:overlay" opacity="0.65">
<path d="M317.797 315.447C312.038 312.176 305.692 310.072 299.119 309.254C292.547 308.437 285.879 308.922 279.494 310.681C273.109 312.441 267.134 315.441 261.908 319.51C256.683 323.579 252.311 328.638 249.04 334.397C248.54 335.263 248.09 336.042 247.707 336.907C247.894 336.708 248.102 336.53 248.326 336.375C253.328 329.603 259.945 324.19 267.573 320.628C275.202 317.066 283.6 315.469 292.004 315.982C291.715 318.482 294.876 321.208 299.302 322.181C303.728 323.155 307.547 322.08 308.466 319.828C310.317 320.604 312.12 321.487 313.867 322.473C324.597 328.568 332.72 338.384 336.701 350.064C340.682 361.744 340.244 374.477 335.47 385.856C335.452 386.126 335.406 386.394 335.333 386.654C335.803 385.84 336.333 385.061 336.8 384.233C340.073 378.47 342.178 372.118 342.994 365.541C343.81 358.963 343.322 352.29 341.557 345.901C339.792 339.512 336.785 333.534 332.709 328.309C328.632 323.083 323.565 318.712 317.797 315.447V315.447Z" fill="white"/>
</g>
<path d="M284.983 373.243C262.137 360.272 245.833 345.293 246.922 338.566C241.762 350.02 241.063 362.988 244.961 374.93C248.86 386.873 257.076 396.93 268 403.133C278.925 409.336 291.771 411.239 304.024 408.468C316.277 405.697 327.055 398.453 334.248 388.153C329.039 392.535 307.815 386.217 284.983 373.243Z" fill="#E8E8E8" stroke="black" stroke-width="4" stroke-linecap="round" stroke-linejoin="round"/>
<g style="mix-blend-mode:multiply">
<path d="M272.194 395.754C262.707 390.368 255.107 382.193 250.426 372.339C245.746 362.484 244.211 351.429 246.029 340.672C241.531 351.984 241.276 364.542 245.313 376.028C249.349 387.513 257.404 397.151 267.99 403.161C278.577 409.172 290.981 411.151 302.912 408.731C314.843 406.312 325.496 399.658 332.905 389.999C324.599 397.072 314.318 401.418 303.457 402.448C292.596 403.477 281.681 401.14 272.194 395.754V395.754Z" fill="#E8E8E8"/>
</g>
<path d="M335.425 385.495C329.414 389.045 308.826 382.725 286.722 370.171C264.618 357.616 248.643 343.186 248.601 336.199C248.27 336.391 247.969 336.629 247.707 336.907C247.432 337.463 247.165 338.025 246.907 338.592C245.833 345.293 262.111 360.257 284.968 373.269C307.824 386.28 329.024 392.561 334.218 388.205C334.58 387.698 334.925 387.181 335.266 386.65C335.38 386.276 335.434 385.886 335.425 385.495V385.495Z" fill="white" stroke="black" stroke-width="2" stroke-linecap="round" stroke-linejoin="round"/>
<path d="M288.654 366.935C285.95 365.374 283.839 363.516 282.319 361.361C280.819 359.201 279.981 356.941 279.803 354.582C279.633 352.209 280.184 349.938 281.455 347.767C282.426 346.054 283.67 344.672 285.186 343.623C286.709 342.56 288.341 341.884 290.083 341.595C291.845 341.301 293.537 341.446 295.158 342.032L295.294 341.796C293.653 340.184 292.743 338.215 292.564 335.889C292.392 333.551 292.93 331.316 294.178 329.185C295.346 327.13 296.922 325.599 298.903 324.591C300.885 323.583 303.063 323.144 305.438 323.273C307.826 323.409 310.201 324.159 312.563 325.523C314.898 326.871 316.716 328.542 318.015 330.534C319.314 332.526 320.022 334.632 320.14 336.852C320.271 339.08 319.753 341.221 318.584 343.275C317.336 345.407 315.65 346.979 313.525 347.992C311.422 348.999 309.281 349.207 307.104 348.614L306.967 348.85C308.272 349.954 309.225 351.335 309.824 352.993C310.431 354.638 310.662 356.39 310.517 358.248C310.379 360.093 309.824 361.872 308.852 363.585C307.582 365.756 305.87 367.357 303.717 368.389C301.585 369.415 299.209 369.818 296.588 369.6C293.988 369.376 291.343 368.488 288.654 366.935ZM291.154 362.604C292.977 363.657 294.722 364.271 296.389 364.446C298.055 364.621 299.559 364.378 300.902 363.719C302.245 363.06 303.34 362.012 304.186 360.576C305.052 359.047 305.435 357.474 305.335 355.86C305.235 354.245 304.709 352.717 303.757 351.275C302.818 349.84 301.496 348.631 299.79 347.646C298.071 346.653 296.343 346.102 294.605 345.991C292.88 345.887 291.293 346.196 289.845 346.917C288.41 347.645 287.259 348.774 286.393 350.304C285.547 351.739 285.167 353.2 285.255 354.685C285.355 356.178 285.904 357.606 286.902 358.969C287.899 360.332 289.316 361.544 291.154 362.604ZM302.199 343.473C303.642 344.306 305.088 344.756 306.537 344.823C307.999 344.897 309.35 344.602 310.592 343.936C311.833 343.271 312.862 342.246 313.678 340.863C314.453 339.491 314.817 338.118 314.771 336.744C314.732 335.357 314.314 334.066 313.517 332.871C312.727 331.662 311.591 330.63 310.108 329.774C308.599 328.903 307.117 328.424 305.663 328.336C304.217 328.236 302.889 328.52 301.682 329.187C300.482 329.841 299.494 330.855 298.72 332.227C297.903 333.61 297.511 335.002 297.542 336.402C297.587 337.81 298.007 339.128 298.802 340.357C299.597 341.586 300.729 342.625 302.199 343.473Z" fill="white"/>
<path d="M282.319 361.361L281.497 361.932L281.502 361.938L282.319 361.361ZM279.803 354.582L278.806 354.653L278.806 354.657L279.803 354.582ZM281.455 347.767L282.318 348.272L282.324 348.26L281.455 347.767ZM285.186 343.623L285.755 344.445L285.758 344.443L285.186 343.623ZM290.083 341.595L290.247 342.582L290.248 342.582L290.083 341.595ZM295.158 342.032L294.818 342.973L295.605 343.257L296.024 342.532L295.158 342.032ZM295.294 341.796L296.16 342.296L296.547 341.625L295.995 341.083L295.294 341.796ZM292.564 335.889L291.566 335.963L291.567 335.966L292.564 335.889ZM294.178 329.185L295.041 329.69L295.047 329.679L294.178 329.185ZM298.903 324.591L299.356 325.482L298.903 324.591ZM305.438 323.273L305.495 322.274L305.492 322.274L305.438 323.273ZM320.14 336.852L319.142 336.905L319.142 336.911L320.14 336.852ZM318.584 343.275L319.447 343.781L319.453 343.77L318.584 343.275ZM313.525 347.992L313.095 347.089L313.093 347.09L313.525 347.992ZM307.104 348.614L307.366 347.649L306.623 347.447L306.238 348.114L307.104 348.614ZM306.967 348.85L306.101 348.35L305.683 349.074L306.322 349.614L306.967 348.85ZM309.824 352.993L308.884 353.333L308.886 353.339L309.824 352.993ZM310.517 358.248L309.52 358.17L309.52 358.173L310.517 358.248ZM308.852 363.585L309.716 364.091L309.722 364.079L308.852 363.585ZM303.717 368.389L303.285 367.487L303.284 367.487L303.717 368.389ZM296.588 369.6L296.503 370.596L296.505 370.597L296.588 369.6ZM296.389 364.446L296.493 363.451L296.389 364.446ZM300.902 363.719L300.462 362.821L300.902 363.719ZM304.186 360.576L305.048 361.084L305.052 361.077L305.057 361.069L304.186 360.576ZM305.335 355.86L304.337 355.921L305.335 355.86ZM303.757 351.275L302.92 351.822L302.922 351.826L303.757 351.275ZM294.605 345.991L294.668 344.993L294.665 344.992L294.605 345.991ZM289.845 346.917L289.399 346.021L289.392 346.025L289.845 346.917ZM286.393 350.304L287.255 350.812L287.259 350.804L287.264 350.796L286.393 350.304ZM285.255 354.685L284.256 354.744L284.257 354.752L285.255 354.685ZM286.902 358.969L287.709 358.378L286.902 358.969ZM306.537 344.823L306.588 343.824L306.583 343.824L306.537 344.823ZM310.592 343.936L311.064 344.818L311.064 344.818L310.592 343.936ZM313.678 340.863L314.54 341.371L314.544 341.363L314.549 341.355L313.678 340.863ZM314.771 336.744L313.771 336.772L313.771 336.778L314.771 336.744ZM313.517 332.871L312.679 333.418L312.685 333.425L313.517 332.871ZM305.663 328.336L305.594 329.334L305.603 329.335L305.663 328.336ZM301.682 329.187L302.161 330.065L302.166 330.062L301.682 329.187ZM298.72 332.227L299.581 332.735L299.586 332.727L299.59 332.718L298.72 332.227ZM297.542 336.402L296.543 336.424L296.543 336.434L297.542 336.402ZM289.154 366.069C286.553 364.567 284.559 362.802 283.136 360.785L281.502 361.938C283.119 364.231 285.348 366.181 288.154 367.801L289.154 366.069ZM283.14 360.791C281.731 358.761 280.963 356.669 280.8 354.507L278.806 354.657C278.998 357.213 279.908 359.641 281.497 361.932L283.14 360.791ZM280.801 354.51C280.646 352.351 281.143 350.279 282.318 348.272L280.592 347.262C279.225 349.596 278.621 352.067 278.806 354.653L280.801 354.51ZM282.324 348.26C283.227 346.669 284.371 345.403 285.755 344.445L284.616 342.801C282.969 343.942 281.625 345.439 280.585 347.274L282.324 348.26ZM285.758 344.443C287.165 343.461 288.659 342.845 290.247 342.582L289.919 340.609C288.023 340.924 286.252 341.66 284.614 342.803L285.758 344.443ZM290.248 342.582C291.847 342.314 293.364 342.447 294.818 342.973L295.498 341.092C293.709 340.445 291.843 340.287 289.918 340.609L290.248 342.582ZM296.024 342.532L296.16 342.296L294.428 341.296L294.292 341.532L296.024 342.532ZM295.995 341.083C294.529 339.642 293.722 337.901 293.561 335.812L291.567 335.966C291.764 338.529 292.777 340.725 294.593 342.509L295.995 341.083ZM293.561 335.816C293.405 333.691 293.889 331.656 295.041 329.69L293.315 328.679C291.97 330.975 291.379 333.411 291.566 335.963L293.561 335.816ZM295.047 329.679C296.125 327.783 297.561 326.396 299.356 325.482L298.45 323.7C296.282 324.802 294.568 326.477 293.308 328.69L295.047 329.679ZM299.356 325.482C301.17 324.56 303.172 324.151 305.384 324.271L305.492 322.274C302.954 322.136 300.599 322.606 298.45 323.7L299.356 325.482ZM305.381 324.271C307.592 324.397 309.817 325.092 312.063 326.389L313.063 324.657C310.585 323.226 308.059 322.421 305.495 322.274L305.381 324.271ZM312.063 326.389C314.281 327.669 315.975 329.236 317.177 331.08L318.852 329.988C317.457 327.847 315.516 326.073 313.063 324.657L312.063 326.389ZM317.177 331.08C318.387 332.936 319.034 334.873 319.142 336.905L321.139 336.799C321.011 334.391 320.241 332.117 318.852 329.988L317.177 331.08ZM319.142 336.911C319.261 338.934 318.794 340.884 317.715 342.781L319.453 343.77C320.711 341.558 321.282 339.226 321.139 336.794L319.142 336.911ZM317.721 342.77C316.569 344.738 315.029 346.167 313.095 347.089L313.956 348.894C316.27 347.791 318.103 346.076 319.447 343.781L317.721 342.77ZM313.093 347.09C311.198 347.997 309.304 348.176 307.366 347.649L306.841 349.579C309.258 350.237 311.645 350.001 313.957 348.894L313.093 347.09ZM306.238 348.114L306.101 348.35L307.833 349.35L307.97 349.114L306.238 348.114ZM306.322 349.614C307.489 350.601 308.342 351.834 308.884 353.333L310.765 352.653C310.108 350.836 309.056 349.307 307.613 348.087L306.322 349.614ZM308.886 353.339C309.44 354.841 309.655 356.447 309.52 358.17L311.514 358.326C311.67 356.333 311.423 354.436 310.762 352.647L308.886 353.339ZM309.52 358.173C309.393 359.862 308.886 361.499 307.983 363.092L309.722 364.079C310.762 362.245 311.364 360.324 311.514 358.322L309.52 358.173ZM307.989 363.08C306.814 365.088 305.248 366.546 303.285 367.487L304.15 369.29C306.492 368.168 308.35 366.424 309.715 364.091L307.989 363.08ZM303.284 367.487C301.33 368.428 299.135 368.809 296.671 368.603L296.505 370.597C299.283 370.828 301.841 370.401 304.151 369.29L303.284 367.487ZM296.674 368.604C294.245 368.394 291.74 367.562 289.154 366.069L288.154 367.801C290.946 369.413 293.732 370.358 296.503 370.596L296.674 368.604ZM290.654 363.47C292.569 364.576 294.448 365.248 296.284 365.441L296.493 363.451C294.997 363.295 293.386 362.739 291.654 361.738L290.654 363.47ZM296.284 365.441C298.115 365.632 299.811 365.369 301.343 364.617L300.462 362.821C299.307 363.388 297.995 363.609 296.493 363.451L296.284 365.441ZM301.343 364.617C302.881 363.862 304.114 362.668 305.048 361.084L303.325 360.069C302.566 361.356 301.61 362.258 300.462 362.821L301.343 364.617ZM305.057 361.069C306.009 359.386 306.446 357.623 306.333 355.798L304.337 355.921C304.424 357.326 304.095 358.708 303.316 360.084L305.057 361.069ZM306.333 355.798C306.222 353.997 305.633 352.301 304.591 350.724L302.922 351.826C303.785 353.132 304.248 354.493 304.337 355.921L306.333 355.798ZM304.594 350.727C303.557 349.143 302.111 347.831 300.29 346.78L299.29 348.512C300.88 349.43 302.079 350.537 302.92 351.822L304.594 350.727ZM300.29 346.78C298.456 345.721 296.58 345.115 294.668 344.993L294.541 346.988C296.105 347.088 297.686 347.586 299.29 348.512L300.29 346.78ZM294.665 344.992C292.777 344.879 291.015 345.217 289.399 346.021L290.29 347.812C291.572 347.174 292.982 346.895 294.545 346.989L294.665 344.992ZM289.392 346.025C287.765 346.85 286.476 348.127 285.523 349.811L287.264 350.796C288.042 349.421 289.054 348.439 290.297 347.808L289.392 346.025ZM285.532 349.796C284.597 351.381 284.156 353.037 284.257 354.744L286.253 354.626C286.179 353.363 286.497 352.098 287.255 350.812L285.532 349.796ZM284.257 354.752C284.372 356.457 285 358.063 286.095 359.559L287.709 358.378C286.808 357.148 286.339 355.898 286.253 354.618L284.257 354.752ZM286.095 359.559C287.192 361.059 288.726 362.358 290.654 363.47L291.654 361.738C289.907 360.73 288.606 359.604 287.709 358.378L286.095 359.559ZM301.699 344.339C303.26 345.24 304.86 345.747 306.491 345.822L306.583 343.824C305.316 343.766 304.025 343.372 302.699 342.607L301.699 344.339ZM306.486 345.822C308.122 345.905 309.656 345.572 311.064 344.818L310.119 343.055C309.045 343.631 307.875 343.89 306.588 343.824L306.486 345.822ZM311.064 344.818C312.489 344.054 313.644 342.89 314.54 341.371L312.817 340.355C312.081 341.603 311.178 342.487 310.119 343.055L311.064 344.818ZM314.549 341.355C315.401 339.846 315.824 338.293 315.77 336.71L313.771 336.778C313.811 337.942 313.505 339.135 312.807 340.371L314.549 341.355ZM315.77 336.716C315.726 335.134 315.246 333.661 314.348 332.316L312.685 333.425C313.381 334.47 313.738 335.579 313.771 336.772L315.77 336.716ZM314.354 332.323C313.464 330.962 312.201 329.828 310.608 328.908L309.608 330.64C310.98 331.432 311.99 332.363 312.679 333.418L314.354 332.323ZM310.608 328.908C308.991 327.974 307.36 327.436 305.723 327.338L305.603 329.335C306.875 329.411 308.207 329.832 309.608 330.64L310.608 328.908ZM305.732 327.339C304.104 327.226 302.583 327.546 301.198 328.312L302.166 330.062C303.196 329.493 304.329 329.246 305.594 329.334L305.732 327.339ZM301.203 328.309C299.815 329.066 298.701 330.225 297.849 331.735L299.59 332.718C300.288 331.484 301.149 330.617 302.161 330.065L301.203 328.309ZM297.858 331.719C296.962 333.238 296.507 334.812 296.543 336.424L298.542 336.38C298.516 335.192 298.845 333.982 299.581 332.735L297.858 331.719ZM296.543 336.434C296.593 338.031 297.072 339.525 297.962 340.9L299.641 339.814C298.941 338.732 298.58 337.589 298.542 336.371L296.543 336.434ZM297.962 340.9C298.856 342.282 300.114 343.424 301.699 344.339L302.699 342.607C301.345 341.825 300.338 340.89 299.641 339.814L297.962 340.9Z" fill="black"/>
<path d="M499.455 330.11C521.379 317.245 537.147 302.575 537.078 295.595C531.03 292.1 510.532 298.716 488.581 311.597C466.631 324.478 450.863 339.147 450.965 346.143C457.046 349.596 477.531 342.976 499.455 330.11Z" fill="#B2B2B2" stroke="black" stroke-width="2" stroke-linecap="round" stroke-linejoin="round"/>
<path d="M488.59 311.592C511.791 297.977 533.382 291.355 537.984 296.284C537.514 295.47 537.104 294.621 536.621 293.803C529.851 282.268 518.775 273.895 505.832 270.525C492.888 267.156 479.135 269.066 467.6 275.837C456.065 282.607 447.692 293.682 444.322 306.626C440.953 319.57 442.863 333.322 449.633 344.857C450.133 345.723 450.583 346.502 451.14 347.267C449.055 340.815 465.394 325.215 488.59 311.592Z" fill="#E5E5E5" stroke="black" stroke-width="4" stroke-linecap="round" stroke-linejoin="round"/>
<g style="mix-blend-mode:overlay" opacity="0.65">
<path d="M467.6 275.836C461.888 279.189 456.893 283.633 452.899 288.916C448.905 294.199 445.99 300.216 444.322 306.625C442.653 313.035 442.264 319.71 443.175 326.27C444.086 332.829 446.281 339.145 449.633 344.857C450.133 345.723 450.583 346.502 451.14 347.266C451.062 347.005 451.011 346.736 450.989 346.465C447.625 338.746 446.246 330.31 446.975 321.922C447.705 313.535 450.521 305.463 455.167 298.442C457.188 299.942 461.129 298.568 464.185 295.221C467.241 291.875 468.22 288.03 466.729 286.108C468.326 284.893 469.993 283.773 471.72 282.753C482.364 276.509 494.926 274.382 507.031 276.774C519.137 279.166 529.946 285.913 537.413 295.736C537.638 295.887 537.847 296.06 538.036 296.254C537.566 295.44 537.156 294.591 536.673 293.773C533.318 288.057 528.869 283.058 523.581 279.063C518.293 275.067 512.27 272.153 505.855 270.487C499.439 268.821 492.759 268.436 486.195 269.354C479.631 270.272 473.312 272.475 467.6 275.836V275.836Z" fill="white"/>
</g>
<path d="M501.246 333.153C478.591 346.452 457.466 353.083 452.185 348.776C459.524 358.972 470.405 366.061 482.697 368.656C494.989 371.251 507.806 369.164 518.641 362.805C529.475 356.446 537.546 346.272 541.273 334.275C545 322.278 544.115 309.322 538.791 297.943C539.982 304.645 523.898 319.867 501.246 333.153Z" fill="#E8E8E8" stroke="black" stroke-width="4" stroke-linecap="round" stroke-linejoin="round"/>
<g style="mix-blend-mode:multiply">
<path d="M514.347 355.484C504.939 361.007 494.059 363.501 483.185 362.627C472.311 361.754 461.968 357.556 453.562 350.602C461.11 360.154 471.858 366.654 483.823 368.901C495.788 371.148 508.161 368.991 518.66 362.828C529.159 356.665 537.074 346.912 540.945 335.37C544.815 323.828 544.38 311.275 539.718 300.029C541.691 310.758 540.314 321.835 535.775 331.756C531.236 341.677 523.755 349.961 514.347 355.484V355.484Z" fill="#E8E8E8"/>
</g>
<path d="M537.078 295.595C537.147 302.575 521.379 317.245 499.455 330.11C477.531 342.976 457.046 349.596 450.974 346.138C450.975 346.52 451.031 346.9 451.14 347.266C451.485 347.783 451.838 348.295 452.2 348.802C457.466 353.083 478.565 346.467 501.261 333.178C523.957 319.89 539.997 304.671 538.821 297.995C538.563 297.428 538.288 296.871 537.999 296.31C537.732 296.024 537.421 295.783 537.078 295.595V295.595Z" fill="white" stroke="black" stroke-width="2" stroke-linecap="round" stroke-linejoin="round"/>
<path d="M497.953 326.626C495.644 327.96 493.299 328.701 490.918 328.851C488.538 329.001 486.328 328.597 484.288 327.64C482.249 326.683 480.585 325.212 479.299 323.225L484.022 320.498C485.259 322.216 486.957 323.247 489.116 323.593C491.281 323.918 493.393 323.486 495.453 322.296C497.106 321.342 498.352 320.106 499.191 318.59C500.043 317.065 500.447 315.415 500.401 313.64C500.361 311.843 499.845 310.085 498.853 308.367C497.838 306.608 496.545 305.264 494.976 304.333C493.411 303.381 491.729 302.892 489.929 302.864C488.128 302.836 486.365 303.312 484.638 304.292C483.397 304.991 482.241 305.912 481.169 307.056C480.09 308.186 479.304 309.296 478.813 310.384L473.928 312.469L464.915 291.22L485.857 279.129L488.357 283.46L471.509 293.187L476.955 305.893L477.191 305.757C477.639 304.623 478.361 303.48 479.358 302.328C480.354 301.175 481.528 300.208 482.88 299.428C485.347 298.004 487.886 297.325 490.496 297.393C493.113 297.439 495.559 298.161 497.835 299.559C500.125 300.949 502.023 302.949 503.531 305.561C505.016 308.132 505.764 310.762 505.776 313.449C505.794 316.116 505.136 318.613 503.802 320.94C502.462 323.254 500.512 325.149 497.953 326.626Z" fill="white"/>
<path d="M490.918 328.851L490.981 329.849L490.918 328.851ZM484.288 327.64L484.713 326.735L484.288 327.64ZM479.299 323.225L478.799 322.359L477.887 322.885L478.459 323.769L479.299 323.225ZM484.022 320.498L484.834 319.914L484.306 319.18L483.522 319.632L484.022 320.498ZM489.116 323.593L488.958 324.581L488.968 324.582L489.116 323.593ZM499.191 318.59L498.319 318.102L498.316 318.106L499.191 318.59ZM500.401 313.64L499.402 313.662L499.402 313.665L500.401 313.64ZM494.976 304.333L494.456 305.187L494.465 305.193L494.976 304.333ZM484.638 304.292L485.129 305.163L485.131 305.161L484.638 304.292ZM481.169 307.056L481.892 307.746L481.899 307.739L481.169 307.056ZM478.813 310.384L479.206 311.304L479.564 311.151L479.724 310.795L478.813 310.384ZM473.928 312.469L473.008 312.86L473.399 313.782L474.321 313.389L473.928 312.469ZM464.915 291.22L464.415 290.354L463.649 290.797L463.994 291.611L464.915 291.22ZM485.857 279.129L486.723 278.629L486.223 277.763L485.357 278.263L485.857 279.129ZM488.357 283.46L488.857 284.326L489.723 283.826L489.223 282.96L488.357 283.46ZM471.509 293.187L471.009 292.321L470.24 292.765L470.589 293.581L471.509 293.187ZM476.955 305.893L476.036 306.287L476.48 307.322L477.455 306.759L476.955 305.893ZM477.191 305.757L477.691 306.623L477.993 306.448L478.121 306.124L477.191 305.757ZM490.496 297.393L490.471 298.392L490.478 298.393L490.496 297.393ZM497.835 299.559L497.312 300.411L497.316 300.414L497.835 299.559ZM505.776 313.449L504.776 313.454L504.776 313.456L505.776 313.449ZM503.802 320.94L504.668 321.441L504.67 321.437L503.802 320.94ZM497.453 325.76C495.261 327.026 493.065 327.714 490.856 327.853L490.981 329.849C493.533 329.688 496.026 328.894 498.453 327.492L497.453 325.76ZM490.856 327.853C488.633 327.993 486.591 327.616 484.713 326.735L483.863 328.545C486.064 329.578 488.443 330.009 490.981 329.849L490.856 327.853ZM484.713 326.735C482.851 325.861 481.328 324.519 480.138 322.681L478.459 323.769C479.842 325.904 481.646 327.505 483.863 328.545L484.713 326.735ZM479.799 324.091L484.522 321.364L483.522 319.632L478.799 322.359L479.799 324.091ZM483.211 321.082C484.609 323.024 486.546 324.194 488.958 324.58L489.274 322.606C487.368 322.301 485.91 321.408 484.834 319.914L483.211 321.082ZM488.968 324.582C491.376 324.943 493.715 324.454 495.953 323.162L494.953 321.43C493.071 322.517 491.185 322.892 489.264 322.604L488.968 324.582ZM495.953 323.162C497.747 322.126 499.131 320.765 500.066 319.074L498.316 318.106C497.574 319.447 496.465 320.557 494.953 321.43L495.953 323.162ZM500.064 319.078C501.006 317.394 501.451 315.566 501.401 313.614L499.402 313.665C499.443 315.265 499.081 316.737 498.319 318.102L500.064 319.078ZM501.401 313.617C501.357 311.636 500.786 309.715 499.719 307.867L497.987 308.867C498.904 310.456 499.366 312.05 499.402 313.662L501.401 313.617ZM499.719 307.867C498.628 305.977 497.219 304.501 495.486 303.473L494.465 305.193C495.871 306.027 497.047 307.24 497.987 308.867L499.719 307.867ZM495.495 303.479C493.782 302.436 491.926 301.895 489.944 301.864L489.913 303.864C491.533 303.889 493.041 304.327 494.456 305.187L495.495 303.479ZM489.944 301.864C487.948 301.834 486.01 302.364 484.145 303.422L485.131 305.161C486.719 304.261 488.309 303.839 489.913 303.864L489.944 301.864ZM484.147 303.42C482.809 304.174 481.574 305.161 480.439 306.372L481.899 307.739C482.908 306.663 483.985 305.807 485.129 305.163L484.147 303.42ZM480.446 306.365C479.311 307.553 478.451 308.755 477.902 309.973L479.724 310.795C480.157 309.836 480.868 308.819 481.892 307.746L480.446 306.365ZM478.42 309.464L473.536 311.55L474.321 313.389L479.206 311.304L478.42 309.464ZM474.849 312.079L465.835 290.83L463.994 291.611L473.008 312.86L474.849 312.079ZM465.415 292.086L486.357 279.995L485.357 278.263L464.415 290.354L465.415 292.086ZM484.991 279.629L487.491 283.96L489.223 282.96L486.723 278.629L484.991 279.629ZM487.857 282.593L471.009 292.321L472.009 294.053L488.857 284.326L487.857 282.593ZM470.589 293.581L476.036 306.287L477.874 305.499L472.428 292.793L470.589 293.581ZM477.455 306.759L477.691 306.623L476.691 304.891L476.455 305.027L477.455 306.759ZM478.121 306.124C478.519 305.118 479.174 304.07 480.114 302.982L478.601 301.674C477.549 302.891 476.759 304.129 476.261 305.389L478.121 306.124ZM480.114 302.982C481.036 301.916 482.123 301.02 483.38 300.294L482.38 298.562C480.934 299.397 479.673 300.434 478.601 301.674L480.114 302.982ZM483.38 300.294C485.702 298.953 488.061 298.33 490.471 298.392L490.522 296.393C487.711 296.321 484.991 297.054 482.38 298.562L483.38 300.294ZM490.478 298.393C492.912 298.436 495.185 299.105 497.312 300.411L498.358 298.707C495.933 297.218 493.313 296.443 490.514 296.393L490.478 298.393ZM497.316 300.414C499.445 301.706 501.231 303.576 502.665 306.061L504.397 305.061C502.816 302.322 500.805 300.192 498.354 298.704L497.316 300.414ZM502.665 306.061C504.072 308.498 504.765 310.958 504.776 313.454L506.776 313.445C506.763 310.566 505.96 307.767 504.397 305.061L502.665 306.061ZM504.776 313.456C504.793 315.945 504.181 318.268 502.935 320.443L504.67 321.437C506.091 318.958 506.795 316.287 506.776 313.443L504.776 313.456ZM502.937 320.438C501.693 322.585 499.876 324.361 497.453 325.76L498.453 327.492C501.147 325.937 503.23 323.922 504.668 321.441L502.937 320.438Z" fill="black"/>
<path d="M143.521 355.404C168.941 355.224 189.931 350.404 193.361 344.324C189.871 338.274 168.811 333.754 143.361 333.934C117.911 334.114 96.9212 338.934 93.5112 345.044C97.0512 351.074 118.101 355.584 143.521 355.404Z" fill="#B2B2B2" stroke="black" stroke-width="2" stroke-linecap="round" stroke-linejoin="round"/>
<path d="M143.371 333.934C170.271 333.744 192.281 338.804 193.801 345.374C193.801 344.434 193.871 343.494 193.861 342.544C193.766 329.17 188.361 316.38 178.836 306.99C169.311 297.601 156.446 292.379 143.071 292.474C129.696 292.57 116.907 297.975 107.517 307.5C98.1274 317.025 92.9058 329.89 93.0013 343.264C93.0013 344.264 93.0013 345.164 93.1013 346.104C94.5213 339.474 116.471 334.134 143.371 333.934Z" fill="#E5E5E5" stroke="black" stroke-width="4" stroke-linecap="round" stroke-linejoin="round"/>
<g style="mix-blend-mode:overlay" opacity="0.65">
<path d="M143.071 292.474C136.449 292.522 129.9 293.873 123.8 296.451C117.699 299.029 112.166 302.783 107.517 307.499C102.867 312.216 99.1925 317.801 96.7019 323.938C94.2113 330.075 92.9538 336.642 93.0013 343.264C93.0013 344.264 93.0013 345.164 93.1013 346.104C93.1643 345.839 93.2548 345.581 93.3713 345.334C94.3175 336.969 97.3411 328.972 102.167 322.073C106.993 315.174 113.467 309.592 121.001 305.834C122.001 308.144 126.101 308.924 130.421 307.554C134.741 306.184 137.511 303.344 137.181 300.934C139.172 300.681 141.175 300.544 143.181 300.524C155.521 300.438 167.464 304.877 176.751 313.002C186.038 321.127 192.026 332.373 193.581 344.614C193.701 344.857 193.795 345.112 193.861 345.374C193.861 344.434 193.931 343.494 193.921 342.544C193.874 335.917 192.521 329.363 189.939 323.259C187.358 317.155 183.598 311.619 178.875 306.969C174.153 302.318 168.56 298.645 162.416 296.158C156.272 293.671 149.699 292.419 143.071 292.474V292.474Z" fill="white"/>
</g>
<path d="M143.551 358.934C117.281 359.124 95.6712 354.304 93.2512 347.934C94.5096 360.434 100.388 372.014 109.736 380.407C119.083 388.8 131.227 393.402 143.789 393.312C156.351 393.221 168.428 388.446 177.654 379.92C186.88 371.393 192.592 359.731 193.671 347.214C191.351 353.614 169.811 358.754 143.551 358.934Z" fill="#E8E8E8" stroke="black" stroke-width="4" stroke-linecap="round" stroke-linejoin="round"/>
<g style="mix-blend-mode:multiply">
<path d="M143.731 384.824C132.822 384.903 122.153 381.623 113.172 375.43C104.192 369.236 97.3343 360.429 93.5312 350.204C95.2915 362.25 101.35 373.253 110.588 381.182C119.827 389.11 131.621 393.429 143.795 393.341C155.968 393.253 167.699 388.765 176.823 380.704C185.946 372.643 191.845 361.555 193.431 349.484C189.774 359.763 183.044 368.668 174.153 374.99C165.262 381.312 154.641 384.745 143.731 384.824V384.824Z" fill="#E8E8E8"/>
</g>
<path d="M193.361 344.324C189.931 350.404 168.941 355.224 143.521 355.404C118.101 355.584 97.0513 351.074 93.5213 345.044C93.3314 345.376 93.19 345.733 93.1013 346.104C93.1413 346.724 93.1913 347.344 93.2513 347.964C95.6713 354.304 117.251 359.124 143.551 358.964C169.851 358.804 191.351 353.644 193.671 347.274C193.731 346.654 193.771 346.034 193.801 345.404C193.713 345.023 193.565 344.659 193.361 344.324V344.324Z" fill="white" stroke="black" stroke-width="2" stroke-linecap="round" stroke-linejoin="round"/>
<path d="M149.874 304.455V351H144.238V310.364H143.965L132.602 317.909V312.182L144.238 304.455H149.874Z" fill="white"/>
<path d="M149.874 304.455H150.874V303.455H149.874V304.455ZM149.874 351V352H150.874V351H149.874ZM144.238 351H143.238V352H144.238V351ZM144.238 310.364H145.238V309.364H144.238V310.364ZM143.965 310.364V309.364H143.664L143.412 309.531L143.965 310.364ZM132.602 317.909H131.602V319.773L133.155 318.742L132.602 317.909ZM132.602 312.182L132.049 311.349L131.602 311.645V312.182H132.602ZM144.238 304.455V303.455H143.936L143.685 303.621L144.238 304.455ZM148.874 304.455V351H150.874V304.455H148.874ZM149.874 350H144.238V352H149.874V350ZM145.238 351V310.364H143.238V351H145.238ZM144.238 309.364H143.965V311.364H144.238V309.364ZM143.412 309.531L132.049 317.076L133.155 318.742L144.519 311.197L143.412 309.531ZM133.602 317.909V312.182H131.602V317.909H133.602ZM133.155 313.015L144.791 305.288L143.685 303.621L132.049 311.349L133.155 313.015ZM144.238 305.455H149.874V303.455H144.238V305.455Z" fill="black"/>
<path d="M370.521 343.404C395.941 343.224 416.931 338.404 420.361 332.324C416.871 326.274 395.811 321.754 370.361 321.934C344.911 322.114 323.921 326.934 320.511 333.044C324.051 339.074 345.101 343.584 370.521 343.404Z" fill="#B2B2B2" stroke="black" stroke-width="2" stroke-linecap="round" stroke-linejoin="round"/>
<path d="M370.371 321.934C397.271 321.744 419.281 326.804 420.801 333.374C420.801 332.434 420.871 331.494 420.861 330.544C420.766 317.17 415.361 304.38 405.836 294.99C396.311 285.601 383.446 280.379 370.071 280.474C356.696 280.57 343.907 285.975 334.517 295.5C325.127 305.025 319.906 317.89 320.001 331.264C320.001 332.264 320.001 333.164 320.101 334.104C321.521 327.474 343.471 322.134 370.371 321.934Z" fill="#E5E5E5" stroke="black" stroke-width="4" stroke-linecap="round" stroke-linejoin="round"/>
<g style="mix-blend-mode:overlay" opacity="0.65">
<path d="M370.071 280.474C363.449 280.522 356.9 281.873 350.8 284.451C344.699 287.029 339.166 290.783 334.517 295.499C329.867 300.216 326.193 305.801 323.702 311.938C321.211 318.075 319.954 324.642 320.001 331.264C320.001 332.264 320.001 333.164 320.101 334.104C320.164 333.839 320.255 333.581 320.371 333.334C321.317 324.969 324.341 316.972 329.167 310.073C333.993 303.174 340.467 297.592 348.001 293.834C349.001 296.144 353.101 296.924 357.421 295.554C361.741 294.184 364.511 291.344 364.181 288.934C366.172 288.681 368.175 288.544 370.181 288.524C382.521 288.438 394.464 292.877 403.751 301.002C413.038 309.127 419.026 320.373 420.581 332.614C420.701 332.857 420.795 333.112 420.861 333.374C420.861 332.434 420.931 331.494 420.921 330.544C420.874 323.917 419.521 317.363 416.939 311.259C414.358 305.155 410.598 299.619 405.875 294.969C401.153 290.318 395.56 286.645 389.416 284.158C383.272 281.671 376.699 280.419 370.071 280.474V280.474Z" fill="white"/>
</g>
<path d="M370.551 346.934C344.281 347.124 322.671 342.304 320.251 335.934C321.51 348.434 327.388 360.014 336.736 368.407C346.083 376.8 358.227 381.402 370.789 381.312C383.351 381.221 395.428 376.446 404.654 367.92C413.88 359.393 419.592 347.731 420.671 335.214C418.351 341.614 396.811 346.754 370.551 346.934Z" fill="#E8E8E8" stroke="black" stroke-width="4" stroke-linecap="round" stroke-linejoin="round"/>
<g style="mix-blend-mode:multiply">
<path d="M370.731 372.824C359.822 372.903 349.153 369.623 340.172 363.43C331.192 357.236 324.334 348.429 320.531 338.204C322.292 350.25 328.35 361.253 337.588 369.182C346.827 377.11 358.621 381.429 370.795 381.341C382.968 381.253 394.699 376.765 403.823 368.704C412.946 360.643 418.845 349.555 420.431 337.484C416.774 347.763 410.044 356.668 401.153 362.99C392.262 369.312 381.641 372.745 370.731 372.824V372.824Z" fill="#E8E8E8"/>
</g>
<path d="M420.361 332.324C416.931 338.404 395.941 343.224 370.521 343.404C345.101 343.584 324.051 339.074 320.521 333.044C320.331 333.376 320.19 333.733 320.101 334.104C320.141 334.724 320.191 335.344 320.251 335.964C322.671 342.304 344.251 347.124 370.551 346.964C396.851 346.804 418.351 341.644 420.671 335.274C420.731 334.654 420.771 334.034 420.801 333.404C420.713 333.023 420.565 332.659 420.361 332.324V332.324Z" fill="white" stroke="black" stroke-width="2" stroke-linecap="round" stroke-linejoin="round"/>
<path d="M359.059 339L379.877 297.818V297.455H355.877V292.455H385.695V297.727L364.968 339H359.059Z" fill="white"/>
<path d="M359.059 339L358.167 338.549L357.433 340H359.059V339ZM379.877 297.818L380.77 298.269L380.877 298.057V297.818H379.877ZM379.877 297.455H380.877V296.455H379.877V297.455ZM355.877 297.455H354.877V298.455H355.877V297.455ZM355.877 292.455V291.455H354.877V292.455H355.877ZM385.695 292.455H386.695V291.455H385.695V292.455ZM385.695 297.727L386.589 298.176L386.695 297.964V297.727H385.695ZM364.968 339V340H365.585L365.862 339.449L364.968 339ZM359.952 339.451L380.77 298.269L378.985 297.367L358.167 338.549L359.952 339.451ZM380.877 297.818V297.455H378.877V297.818H380.877ZM379.877 296.455H355.877V298.455H379.877V296.455ZM356.877 297.455V292.455H354.877V297.455H356.877ZM355.877 293.455H385.695V291.455H355.877V293.455ZM384.695 292.455V297.727H386.695V292.455H384.695ZM384.802 297.278L364.075 338.551L365.862 339.449L386.589 298.176L384.802 297.278ZM364.968 338H359.059V340H364.968V338Z" fill="black"/>
<path d="M420.722 360.274C438.569 342.172 450.003 323.922 448.129 317.197C441.384 315.387 423.296 327.082 405.427 345.206C387.559 363.329 376.125 381.579 378.034 388.311C384.801 390.071 402.875 378.376 420.722 360.274Z" fill="#B2B2B2" stroke="black" stroke-width="2" stroke-linecap="round" stroke-linejoin="round"/>
<path d="M405.434 345.198C424.321 326.043 443.462 314.057 449.183 317.628C448.518 316.964 447.903 316.25 447.224 315.585C437.699 306.195 424.834 300.973 411.459 301.069C398.085 301.164 385.295 306.569 375.905 316.094C366.515 325.619 361.294 338.484 361.389 351.859C361.485 365.234 366.89 378.023 376.415 387.413C377.122 388.12 377.758 388.756 378.493 389.35C374.809 383.658 386.554 364.361 405.434 345.198Z" fill="#E5E5E5" stroke="black" stroke-width="4" stroke-linecap="round" stroke-linejoin="round"/>
<g style="mix-blend-mode:overlay" opacity="0.65">
<path d="M375.906 316.094C371.256 320.81 367.581 326.396 365.09 332.533C362.599 338.669 361.342 345.236 361.389 351.859C361.436 358.481 362.788 365.03 365.366 371.13C367.944 377.231 371.698 382.763 376.415 387.413C377.122 388.12 377.758 388.756 378.494 389.35C378.35 389.118 378.232 388.872 378.14 388.615C372.894 382.03 369.377 374.238 367.911 365.947C366.445 357.657 367.076 349.131 369.747 341.147C372.087 342.073 375.538 339.726 377.624 335.702C379.71 331.679 379.66 327.712 377.723 326.241C378.951 324.654 380.271 323.141 381.676 321.708C390.34 312.922 401.924 307.616 414.236 306.794C426.548 305.972 438.734 309.691 448.49 317.247C448.746 317.334 448.993 317.448 449.225 317.586C448.561 316.921 447.946 316.207 447.267 315.542C442.547 310.889 436.956 307.212 430.814 304.721C424.672 302.23 418.099 300.975 411.472 301.026C404.844 301.077 398.292 302.434 392.189 305.02C386.086 307.605 380.553 311.368 375.906 316.094V316.094Z" fill="white"/>
</g>
<path d="M423.239 362.749C404.798 381.459 386.109 393.331 379.894 390.538C389.622 398.487 401.967 402.518 414.511 401.843C427.056 401.168 438.897 395.836 447.716 386.889C456.535 377.942 461.698 366.026 462.193 353.473C462.688 340.92 458.48 328.635 450.392 319.021C453.277 325.187 441.681 344.053 423.239 362.749Z" fill="white" stroke="black" stroke-width="4" stroke-linecap="round" stroke-linejoin="round"/>
<g style="mix-blend-mode:multiply">
<path d="M441.673 380.929C434.015 388.698 424.152 393.923 413.422 395.894C402.692 397.865 391.616 396.486 381.697 391.945C391.459 399.219 403.523 402.715 415.662 401.788C427.801 400.862 439.195 395.576 447.741 386.906C456.287 378.236 461.408 366.767 462.159 354.616C462.91 342.465 459.241 330.453 451.827 320.796C456.51 330.65 458.047 341.706 456.23 352.463C454.414 363.221 449.332 373.159 441.673 380.929V380.929Z" fill="white"/>
</g>
<path d="M448.129 317.197C450.003 323.922 438.569 342.172 420.722 360.274C402.875 378.376 384.801 390.071 378.041 388.304C378.141 388.672 378.293 389.025 378.494 389.35C378.96 389.76 379.434 390.163 379.915 390.559C386.109 393.331 404.777 381.48 423.26 362.77C441.744 344.06 453.298 325.209 450.435 319.064C450.039 318.583 449.628 318.116 449.204 317.65C448.872 317.442 448.509 317.29 448.129 317.197V317.197Z" fill="white" stroke="black" stroke-width="2" stroke-linecap="round" stroke-linejoin="round"/>
<path d="M395.798 359.436L392.52 356.158L384.099 318.81L386.477 316.431L391.555 321.51L389.948 323.117L396.312 351.337L396.569 351.594L416.047 332.116L419.583 335.652L395.798 359.436ZM418.04 350.694L410.294 342.948L408.767 341.421L385.127 317.781L388.92 313.989L421.832 346.901L418.04 350.694Z" fill="white"/>
<path d="M395.798 359.436L395.091 360.143L395.798 360.85L396.505 360.143L395.798 359.436ZM392.52 356.158L391.544 356.378L391.608 356.66L391.812 356.865L392.52 356.158ZM384.099 318.81L383.391 318.103L383.002 318.492L383.123 319.03L384.099 318.81ZM386.477 316.431L387.184 315.724L386.477 315.017L385.77 315.724L386.477 316.431ZM391.555 321.51L392.262 322.217L392.97 321.51L392.262 320.802L391.555 321.51ZM389.948 323.117L389.241 322.41L388.852 322.799L388.973 323.337L389.948 323.117ZM396.312 351.337L395.337 351.557L395.4 351.839L395.605 352.044L396.312 351.337ZM396.569 351.594L395.862 352.301L396.569 353.008L397.277 352.301L396.569 351.594ZM416.047 332.116L416.754 331.409L416.047 330.702L415.34 331.409L416.047 332.116ZM419.583 335.652L420.29 336.359L420.997 335.652L420.29 334.945L419.583 335.652ZM418.04 350.694L417.333 351.401L418.04 352.108L418.747 351.401L418.04 350.694ZM385.127 317.781L384.42 317.074L383.713 317.781L384.42 318.488L385.127 317.781ZM388.92 313.989L389.627 313.281L388.92 312.574L388.213 313.281L388.92 313.989ZM421.832 346.901L422.54 347.608L423.247 346.901L422.54 346.194L421.832 346.901ZM396.505 358.729L393.227 355.451L391.812 356.865L395.091 360.143L396.505 358.729ZM393.495 355.938L385.074 318.59L383.123 319.03L391.544 356.378L393.495 355.938ZM384.806 319.517L387.184 317.138L385.77 315.724L383.391 318.103L384.806 319.517ZM385.77 317.138L390.848 322.217L392.262 320.802L387.184 315.724L385.77 317.138ZM390.848 320.802L389.241 322.41L390.655 323.824L392.262 322.217L390.848 320.802ZM388.973 323.337L395.337 351.557L397.288 351.117L390.924 322.897L388.973 323.337ZM395.605 352.044L395.862 352.301L397.277 350.887L397.019 350.63L395.605 352.044ZM397.277 352.301L416.754 332.823L415.34 331.409L395.862 350.887L397.277 352.301ZM415.34 332.823L418.875 336.359L420.29 334.945L416.754 331.409L415.34 332.823ZM418.875 334.945L395.091 358.729L396.505 360.143L420.29 336.359L418.875 334.945ZM418.747 349.987L411.001 342.241L409.587 343.655L417.333 351.401L418.747 349.987ZM411.001 342.241L409.474 340.714L408.06 342.128L409.587 343.655L411.001 342.241ZM409.474 340.714L385.834 317.074L384.42 318.488L408.06 342.128L409.474 340.714ZM385.834 318.488L389.627 314.696L388.213 313.281L384.42 317.074L385.834 318.488ZM388.213 314.696L421.125 347.608L422.54 346.194L389.627 313.281L388.213 314.696ZM421.125 346.194L417.333 349.987L418.747 351.401L422.54 347.608L421.125 346.194Z" fill="black"/>
<path d="M523.722 374.865C545.826 387.419 566.414 393.74 572.425 390.19C572.427 383.205 556.449 368.761 534.318 356.192C512.188 343.623 491.6 337.302 485.592 340.888C485.643 347.88 501.618 362.311 523.722 374.865Z" fill="#B2B2B2" stroke="black" stroke-width="2" stroke-linecap="round" stroke-linejoin="round"/>
<path d="M534.327 356.197C557.718 369.482 574.249 384.869 572.281 391.319C572.751 390.505 573.281 389.726 573.748 388.898C580.352 377.267 582.066 363.489 578.512 350.595C574.959 337.701 566.428 326.746 554.797 320.141C543.166 313.537 529.388 311.823 516.494 315.376C503.6 318.93 492.645 327.461 486.04 339.092C485.54 339.958 485.09 340.737 484.707 341.601C489.252 336.569 510.931 342.92 534.327 356.197Z" fill="#E5E5E5" stroke="black" stroke-width="4" stroke-linecap="round" stroke-linejoin="round"/>
<g style="mix-blend-mode:overlay" opacity="0.65">
<path d="M554.797 320.141C549.038 316.871 542.692 314.767 536.119 313.949C529.547 313.131 522.879 313.616 516.494 315.376C510.109 317.136 504.134 320.136 498.908 324.205C493.683 328.274 489.311 333.333 486.04 339.092C485.54 339.958 485.09 340.737 484.707 341.601C484.894 341.403 485.102 341.225 485.326 341.069C490.328 334.297 496.945 328.884 504.573 325.322C512.202 321.761 520.6 320.163 529.004 320.676C528.715 323.177 531.876 325.902 536.302 326.876C540.728 327.849 544.547 326.775 545.466 324.523C547.317 325.298 549.12 326.182 550.867 327.168C561.597 333.263 569.72 343.079 573.701 354.758C577.682 366.438 577.244 379.172 572.47 390.551C572.452 390.821 572.406 391.088 572.333 391.349C572.803 390.535 573.333 389.756 573.8 388.928C577.073 383.165 579.178 376.813 579.994 370.235C580.81 363.658 580.322 356.984 578.557 350.596C576.792 344.207 573.785 338.229 569.709 333.003C565.632 327.778 560.565 323.407 554.797 320.141V320.141Z" fill="white"/>
</g>
<path d="M521.983 377.937C499.137 364.967 482.833 349.988 483.922 343.261C478.762 354.715 478.063 367.683 481.961 379.625C485.86 391.567 494.076 401.625 505 407.828C515.925 414.031 528.771 415.933 541.024 413.163C553.277 410.392 564.055 403.147 571.248 392.847C566.039 397.23 544.815 390.911 521.983 377.937Z" fill="white" stroke="black" stroke-width="4" stroke-linecap="round" stroke-linejoin="round"/>
<g style="mix-blend-mode:multiply">
<path d="M509.194 400.449C499.707 395.062 492.107 386.887 487.426 377.033C482.746 367.179 481.211 356.123 483.029 345.367C478.531 356.679 478.276 369.237 482.313 380.722C486.349 392.208 494.404 401.845 504.99 407.856C515.577 413.867 527.981 415.845 539.912 413.426C551.843 411.007 562.496 404.353 569.905 394.693C561.599 401.766 551.318 406.113 540.457 407.142C529.596 408.172 518.681 405.835 509.194 400.449V400.449Z" fill="white"/>
</g>
<path d="M572.425 390.19C566.414 393.74 545.826 387.419 523.722 374.865C501.618 362.311 485.643 347.88 485.601 340.893C485.27 341.085 484.969 341.324 484.707 341.601C484.432 342.158 484.165 342.72 483.907 343.287C482.833 349.988 499.111 364.952 521.968 377.963C544.824 390.975 566.024 397.256 571.218 392.899C571.58 392.392 571.925 391.875 572.266 391.345C572.38 390.971 572.434 390.581 572.425 390.19V390.19Z" fill="white" stroke="black" stroke-width="2" stroke-linecap="round" stroke-linejoin="round"/>
<path d="M528.123 368.129C525.525 366.629 523.466 364.846 521.948 362.779C520.442 360.72 519.551 358.552 519.273 356.275C519.016 353.992 519.445 351.764 520.56 349.591L525.52 352.455C524.875 353.815 524.674 355.194 524.915 356.593C525.165 357.979 525.778 359.296 526.755 360.542C527.733 361.789 528.996 362.859 530.544 363.753C532.276 364.753 533.986 365.338 535.672 365.507C537.359 365.676 538.894 365.442 540.276 364.806C541.658 364.169 542.759 363.142 543.577 361.725C544.433 360.242 544.819 358.725 544.736 357.172C544.66 355.606 544.099 354.093 543.054 352.632C542.008 351.17 540.461 349.849 538.414 348.667L535.186 346.804L537.686 342.473L540.914 344.337C542.515 345.261 544.086 345.783 545.626 345.903C547.18 346.03 548.601 345.766 549.889 345.11C551.191 344.462 552.251 343.429 553.069 342.012C553.857 340.647 554.24 339.286 554.22 337.927C554.2 336.568 553.802 335.288 553.025 334.088C552.262 332.894 551.139 331.87 549.656 331.014C548.265 330.211 546.805 329.709 545.276 329.509C543.768 329.303 542.35 329.455 541.023 329.966C539.704 330.464 538.625 331.363 537.786 332.664L533.063 329.936C534.361 327.869 536.066 326.387 538.176 325.488C540.295 324.577 542.576 324.232 545.02 324.453C547.477 324.682 549.867 325.467 552.189 326.808C554.682 328.247 556.53 329.987 557.731 332.028C558.94 334.056 559.549 336.166 559.56 338.359C559.571 340.552 559.027 342.6 557.929 344.503C556.618 346.773 554.904 348.364 552.786 349.275C550.68 350.194 548.433 350.375 546.043 349.817L545.861 350.132C548.164 352.022 549.527 354.252 549.95 356.823C550.38 359.381 549.857 361.939 548.379 364.498C547.114 366.689 545.381 368.313 543.179 369.369C540.998 370.419 538.596 370.852 535.974 370.667C533.351 370.482 530.734 369.636 528.123 368.129Z" fill="white"/>
<path d="M521.948 362.779L521.14 363.369L521.142 363.371L521.948 362.779ZM519.273 356.275L518.279 356.387L518.28 356.396L519.273 356.275ZM520.56 349.591L521.06 348.725L520.15 348.2L519.67 349.135L520.56 349.591ZM525.52 352.455L526.424 352.883L526.819 352.05L526.02 351.589L525.52 352.455ZM524.915 356.593L523.93 356.764L523.931 356.77L524.915 356.593ZM526.755 360.542L525.969 361.159L526.755 360.542ZM540.276 364.806L539.858 363.897L540.276 364.806ZM544.736 357.172L543.737 357.22L543.737 357.226L544.736 357.172ZM543.054 352.632L542.24 353.214L543.054 352.632ZM535.186 346.804L534.32 346.304L533.82 347.17L534.686 347.67L535.186 346.804ZM537.686 342.473L538.186 341.607L537.32 341.107L536.82 341.973L537.686 342.473ZM545.626 345.903L545.708 344.906L545.704 344.906L545.626 345.903ZM549.889 345.11L549.443 344.215L549.436 344.219L549.889 345.11ZM554.22 337.927L555.22 337.912L554.22 337.927ZM553.025 334.088L552.183 334.626L552.185 334.631L553.025 334.088ZM545.276 329.509L545.141 330.5L545.146 330.5L545.276 329.509ZM541.023 329.966L541.376 330.902L541.383 330.899L541.023 329.966ZM537.786 332.664L537.286 333.53L538.111 334.006L538.627 333.206L537.786 332.664ZM533.063 329.936L532.216 329.405L531.664 330.283L532.563 330.802L533.063 329.936ZM538.176 325.488L538.568 326.408L538.572 326.407L538.176 325.488ZM545.02 324.453L545.113 323.457L545.11 323.457L545.02 324.453ZM557.731 332.028L556.869 332.535L556.872 332.54L557.731 332.028ZM559.56 338.359L558.56 338.364L558.56 338.364L559.56 338.359ZM552.786 349.275L552.39 348.357L552.385 348.359L552.786 349.275ZM546.043 349.817L546.27 348.844L545.548 348.675L545.177 349.317L546.043 349.817ZM545.861 350.132L544.995 349.632L544.571 350.367L545.227 350.905L545.861 350.132ZM549.95 356.823L548.963 356.985L548.964 356.989L549.95 356.823ZM543.179 369.369L542.747 368.467L542.745 368.468L543.179 369.369ZM535.974 370.667L535.903 371.665L535.974 370.667ZM528.623 367.263C526.124 365.82 524.177 364.125 522.753 362.187L521.142 363.371C522.755 365.566 524.925 367.437 527.623 368.995L528.623 367.263ZM522.755 362.189C521.339 360.252 520.52 358.243 520.266 356.154L518.28 356.396C518.581 358.861 519.545 361.188 521.14 363.369L522.755 362.189ZM520.267 356.163C520.034 354.089 520.419 352.057 521.45 350.048L519.67 349.135C518.472 351.471 517.999 353.896 518.279 356.387L520.267 356.163ZM520.06 350.457L525.02 353.321L526.02 351.589L521.06 348.725L520.06 350.457ZM524.617 352.026C523.889 353.561 523.651 355.148 523.93 356.764L525.901 356.423C525.696 355.239 525.861 354.069 526.424 352.883L524.617 352.026ZM523.931 356.77C524.213 358.336 524.903 359.801 525.969 361.159L527.542 359.925C526.653 358.791 526.117 357.623 525.9 356.416L523.931 356.77ZM525.969 361.159C527.034 362.519 528.399 363.67 530.044 364.619L531.044 362.887C529.592 362.049 528.431 361.059 527.542 359.925L525.969 361.159ZM530.044 364.619C531.877 365.678 533.722 366.316 535.573 366.502L535.772 364.512C534.249 364.359 532.675 363.829 531.044 362.887L530.044 364.619ZM535.573 366.502C537.416 366.687 539.132 366.433 540.694 365.714L539.858 363.897C538.655 364.451 537.302 364.665 535.772 364.512L535.573 366.502ZM540.694 365.714C542.279 364.984 543.529 363.807 544.443 362.225L542.711 361.225C541.988 362.477 541.038 363.354 539.858 363.897L540.694 365.714ZM544.443 362.225C545.386 360.592 545.829 358.884 545.735 357.118L543.737 357.226C543.809 358.565 543.48 359.893 542.711 361.225L544.443 362.225ZM545.735 357.124C545.649 355.339 545.008 353.644 543.867 352.05L542.24 353.214C543.191 354.542 543.672 355.874 543.737 357.22L545.735 357.124ZM543.867 352.05C542.716 350.442 541.047 349.033 538.914 347.801L537.914 349.533C539.875 350.665 541.299 351.899 542.24 353.214L543.867 352.05ZM538.914 347.801L535.686 345.937L534.686 347.67L537.914 349.533L538.914 347.801ZM536.052 347.304L538.552 342.973L536.82 341.973L534.32 346.304L536.052 347.304ZM537.186 343.339L540.414 345.203L541.414 343.471L538.186 341.607L537.186 343.339ZM540.414 345.203C542.119 346.187 543.833 346.767 545.549 346.9L545.704 344.906C544.338 344.8 542.911 344.335 541.414 343.471L540.414 345.203ZM545.545 346.899C547.268 347.041 548.876 346.748 550.343 346.001L549.436 344.219C548.325 344.784 547.092 345.019 545.708 344.906L545.545 346.899ZM550.335 346.005C551.834 345.259 553.031 344.077 553.935 342.512L552.203 341.512C551.47 342.781 550.548 343.665 549.443 344.215L550.335 346.005ZM553.935 342.512C554.798 341.016 555.243 339.478 555.22 337.912L553.22 337.942C553.237 339.093 552.915 340.278 552.203 341.512L553.935 342.512ZM555.22 337.912C555.197 336.355 554.738 334.894 553.865 333.544L552.185 334.631C552.866 335.682 553.203 336.78 553.22 337.942L555.22 337.912ZM553.867 333.549C553.002 332.195 551.749 331.067 550.156 330.148L549.156 331.88C550.529 332.672 551.522 333.594 552.183 334.626L553.867 333.549ZM550.156 330.148C548.656 329.282 547.071 328.735 545.406 328.517L545.146 330.5C546.539 330.683 547.874 331.14 549.156 331.88L550.156 330.148ZM545.412 328.518C543.749 328.291 542.16 328.457 540.664 329.033L541.383 330.899C542.541 330.453 543.788 330.315 545.141 330.5L545.412 328.518ZM540.67 329.031C539.131 329.611 537.888 330.66 536.946 332.122L538.627 333.206C539.361 332.067 540.277 331.317 541.376 330.902L540.67 329.031ZM538.286 331.798L533.563 329.07L532.563 330.802L537.286 333.53L538.286 331.798ZM533.909 330.468C535.107 328.562 536.657 327.222 538.568 326.408L537.785 324.568C535.474 325.552 533.615 327.176 532.216 329.405L533.909 330.468ZM538.572 326.407C540.527 325.565 542.64 325.242 544.93 325.449L545.11 323.457C542.511 323.222 540.062 323.588 537.781 324.57L538.572 326.407ZM544.927 325.449C547.229 325.663 549.481 326.399 551.689 327.674L552.689 325.942C550.253 324.535 547.725 323.701 545.113 323.457L544.927 325.449ZM551.689 327.674C554.065 329.046 555.772 330.672 556.869 332.535L558.593 331.521C557.287 329.302 555.3 327.449 552.689 325.942L551.689 327.674ZM556.872 332.54C557.996 334.426 558.55 336.363 558.56 338.364L560.56 338.354C560.548 335.969 559.883 333.685 558.59 331.516L556.872 332.54ZM558.56 338.364C558.57 340.38 558.073 342.254 557.063 344.003L558.795 345.003C559.982 342.947 560.572 340.725 560.56 338.354L558.56 338.364ZM557.063 344.003C555.845 346.113 554.284 347.542 552.39 348.357L553.181 350.194C555.524 349.186 557.392 347.433 558.795 345.003L557.063 344.003ZM552.385 348.359C550.492 349.185 548.465 349.356 546.27 348.844L545.816 350.791C548.4 351.394 550.869 351.203 553.186 350.192L552.385 348.359ZM545.177 349.317L544.995 349.632L546.727 350.632L546.909 350.317L545.177 349.317ZM545.227 350.905C547.371 352.665 548.585 354.688 548.963 356.985L550.937 356.661C550.469 353.816 548.958 351.379 546.495 349.359L545.227 350.905ZM548.964 356.989C549.35 359.286 548.891 361.611 547.513 363.998L549.245 364.998C550.822 362.268 551.41 359.476 550.936 356.657L548.964 356.989ZM547.513 363.998C546.345 366.021 544.76 367.502 542.747 368.467L543.612 370.27C546.002 369.124 547.883 367.357 549.245 364.998L547.513 363.998ZM542.745 368.468C540.734 369.436 538.508 369.843 536.044 369.67L535.903 371.665C538.684 371.86 541.262 371.402 543.613 370.27L542.745 368.468ZM536.044 369.67C533.593 369.497 531.122 368.706 528.623 367.263L527.623 368.995C530.346 370.567 533.109 371.468 535.903 371.665L536.044 369.67Z" fill="black"/>
<defs>
<clipPath id="clip0_102_5046">
<rect width="123.17" height="25.78" fill="white" transform="translate(407 483)"/>
</clipPath>
</defs>
</svg>
