<svg width="25" height="25" viewBox="0 0 110 110" fill="none" xmlns="http://www.w3.org/2000/svg">
<path d="M54.9998 9.1665C48.9809 9.1665 43.0209 10.352 37.4602 12.6554C31.8994 14.9587 26.8468 18.3348 22.5908 22.5908C13.9954 31.1862 9.1665 42.8441 9.1665 54.9998C9.1665 75.2582 22.3207 92.4457 40.5165 98.5415C42.8082 98.9082 43.5415 97.4873 43.5415 96.2498V88.504C30.8457 91.254 28.1415 82.3623 28.1415 82.3623C26.0332 77.0457 23.054 75.6248 23.054 75.6248C18.8832 72.7832 23.3748 72.8748 23.3748 72.8748C27.9582 73.1957 30.3873 77.5957 30.3873 77.5957C34.3748 84.5623 41.1123 82.4998 43.7248 81.3998C44.1373 78.4207 45.329 76.404 46.6123 75.2582C36.4373 74.1123 25.7582 70.1707 25.7582 52.7082C25.7582 47.6207 27.4998 43.5415 30.479 40.2873C30.0207 39.1415 28.4165 34.3748 30.9373 28.1873C30.9373 28.1873 34.7873 26.9498 43.5415 32.8623C47.1623 31.854 51.104 31.3498 54.9998 31.3498C58.8957 31.3498 62.8373 31.854 66.4582 32.8623C75.2123 26.9498 79.0623 28.1873 79.0623 28.1873C81.5832 34.3748 79.979 39.1415 79.5207 40.2873C82.4998 43.5415 84.2415 47.6207 84.2415 52.7082C84.2415 70.2165 73.5165 74.0665 63.2957 75.2123C64.9457 76.6332 66.4582 79.429 66.4582 83.6915V96.2498C66.4582 97.4873 67.1915 98.954 69.529 98.5415C87.7248 92.3998 100.833 75.2582 100.833 54.9998C100.833 48.9809 99.6477 43.0209 97.3443 37.4602C95.041 31.8994 91.6649 26.8468 87.4089 22.5908C83.1529 18.3348 78.1002 14.9587 72.5395 12.6554C66.9787 10.352 61.0188 9.1665 54.9998 9.1665Z" fill="black"/>
</svg>
