<svg width="623" height="683" viewBox="0 0 623 683" fill="none" xmlns="http://www.w3.org/2000/svg">
<path d="M480.473 8C504.263 8 505.853 32 505.913 37.36H506.123C506.433 37.36 506.773 37.36 507.123 37.36H508.063C515.803 37.36 541.972 40.2 548.342 77.88C550.433 83.7158 551.449 89.882 551.342 96.08H560.882C560.882 96.08 606.972 123.95 606.972 258.08C606.972 352.32 589.823 394.08 571.172 410.63V410.69C571.172 410.69 571.172 410.69 571.172 410.64C569.717 411.928 568.177 413.117 566.562 414.2C567.153 414.8 567.732 415.4 568.342 416L568.532 416.31C567.472 415.84 566.452 415.38 565.452 414.91C563.278 416.272 560.961 417.392 558.542 418.25C576.332 444.25 582.032 517.25 583.182 550.64C583.263 553.13 583.323 555.4 583.362 557.39C583.362 557.39 583.362 557.49 583.362 557.54V557.61L610.172 606.51C612.645 612.433 614.2 618.698 614.782 625.09C614.872 626.27 614.922 627.42 614.943 628.55V628.65C615.232 660.52 584.292 674.82 584.292 674.82H38.6425C38.6425 674.82 37.2725 674.19 35.1125 672.89C35.5225 673.34 35.9325 673.79 36.3425 674.22C29.1825 670.16 7.7325 655.78 8.0025 629.22C8.09647 621.418 9.71694 613.71 12.7725 606.53L39.5725 557.63V557.56C39.5675 557.51 39.5675 557.46 39.5725 557.41C39.5725 555.41 39.6625 553.15 39.7525 550.66C40.9025 517.11 46.6425 443.66 64.6125 417.95C62.0629 416.962 59.634 415.687 57.3725 414.15L55.5125 416C56.1425 415.37 56.7525 414.75 57.3625 414.12C55.7905 413.061 54.2905 411.898 52.8725 410.64V410.69V410.63C34.2125 394.11 17.0525 352.33 17.0525 258.09C17.0525 133.09 57.0525 100.39 62.5225 96.5L62.0525 96.08L62.9225 96.23L63.1525 96.08H76.1525C76.1525 41.08 109.012 37.36 117.853 37.36H118.793C119.153 37.36 119.493 37.36 119.793 37.36H120.013C120.083 32 121.663 8 145.463 8H480.462M503.313 30.25H503.753C503.463 29.39 503.133 28.54 502.753 27.68C502.973 28.56 503.163 29.42 503.313 30.25ZM504.613 37.4H505.452C505.155 35.3687 504.704 33.363 504.103 31.4C504.414 33.4123 504.584 35.4439 504.613 37.48M480.473 0H145.473C124.613 0 115.113 14.68 112.683 29.68C103.814 30.7147 95.4351 34.2995 88.5625 40C76.4625 50.08 69.6925 66.25 68.4125 88.08H63.1525H62.6125H62.0525C60.6202 88.0833 59.215 88.471 57.9836 89.2028C56.7523 89.9345 55.74 90.9834 55.0525 92.24C42.9225 102.71 9.0525 142.31 9.0525 258.09C9.0525 339.71 21.7125 392.77 46.6925 415.84C46.9526 416.152 47.2368 416.443 47.5425 416.71C47.7047 418.574 48.515 420.322 49.8325 421.65C50.5713 422.397 51.4473 422.995 52.4125 423.41C35.8825 459.81 32.4125 533.09 31.7825 549.89C31.7825 550.04 31.7825 550.19 31.7825 550.33C31.7225 552.14 31.6725 553.86 31.6325 555.46L5.7525 602.63C5.60316 602.902 5.46961 603.183 5.3525 603.47C1.92801 611.597 0.111178 620.311 0.00250018 629.13C-0.2875 660.2 24.7325 676.79 32.4025 681.13C33.3503 681.67 34.3984 682.01 35.4825 682.13C36.4808 682.559 37.556 682.78 38.6425 682.78H584.282C585.442 682.779 586.587 682.53 587.642 682.05C589.092 681.37 623.263 665.15 622.932 628.54C622.937 628.477 622.937 628.413 622.932 628.35C622.932 627.03 622.862 625.72 622.753 624.41C622.107 617.207 620.363 610.146 617.582 603.47C617.465 603.183 617.332 602.902 617.182 602.63L591.332 555.46C591.292 553.853 591.242 552.143 591.182 550.33C591.182 550.19 591.182 550.04 591.182 549.89C590.592 533.22 587.112 460.6 570.772 424.01C572.378 423.546 573.799 422.59 574.834 421.277C575.869 419.964 576.466 418.36 576.542 416.69C576.841 416.429 577.119 416.145 577.372 415.84C602.372 392.77 615.003 339.71 615.003 258.09C615.003 201.24 607.002 155.88 591.152 123.29C578.952 98.15 566.432 90.07 565.052 89.24C563.804 88.4828 562.372 88.0816 560.912 88.08H558.912C558.448 83.8937 557.508 79.7739 556.112 75.8C552.922 57.8 545.182 44.68 533.112 36.8C527.135 32.9312 520.346 30.4946 513.272 29.68C510.822 14.67 501.323 0 480.473 0Z" fill="black"/>
</svg>
